<svg width="359" height="116" viewBox="0 0 359 116" fill="none" xmlns="http://www.w3.org/2000/svg">
<path d="M130.286 36.6161H160.911V45.3245H139.952V55.9703H159.286V64.6786H139.952V81.762H130.286V36.6161Z" fill="black"/>
<path d="M172.31 82.4078C170.461 82.4078 168.795 82.1422 167.31 81.6161C165.836 81.0745 164.581 80.3349 163.539 79.387C162.508 78.4286 161.727 77.314 161.185 76.0328C160.654 74.7411 160.394 73.3193 160.394 71.762C160.394 70.2203 160.67 68.8036 161.227 67.512C161.779 66.2203 162.612 65.1057 163.727 64.1578C164.852 63.2151 166.227 62.4807 167.852 61.9495C169.487 61.4078 171.404 61.137 173.602 61.137H181.664V59.512C181.664 57.887 181.149 56.6786 180.123 55.887C179.092 55.0849 177.675 54.6786 175.873 54.6786C174.581 54.6786 173.482 54.9651 172.581 55.5328C171.675 56.0901 171.05 56.7724 170.706 57.5745H161.685C161.977 56.1995 162.498 54.8818 163.248 53.6161C164.008 52.3557 164.982 51.2307 166.164 50.2411C167.342 49.2411 168.758 48.4443 170.414 47.8453C172.065 47.2515 173.987 46.9495 176.185 46.9495C180.737 46.9495 184.295 48.0484 186.852 50.2411C189.42 52.4234 190.706 55.6265 190.706 59.8453V81.762H182.956L181.998 77.887H181.664C181.315 78.3609 180.883 78.8661 180.373 79.4078C179.857 79.9495 179.211 80.4495 178.435 80.9078C177.67 81.3557 176.779 81.7151 175.769 81.9911C174.753 82.2672 173.602 82.4078 172.31 82.4078ZM174.581 74.9911C176.675 74.9911 178.378 74.4026 179.685 73.2203C181.003 72.0432 181.664 70.4859 181.664 68.5536V67.5745H173.935C172.295 67.5745 171.128 67.9234 170.435 68.6161C169.753 69.2984 169.414 70.1318 169.414 71.1161C169.414 72.2411 169.821 73.1734 170.644 73.9078C171.461 74.6318 172.774 74.9911 174.581 74.9911Z" fill="black"/>
<path d="M212.431 82.4078C210.014 82.4078 208.035 81.9338 206.494 80.9911C204.952 80.0484 203.702 79.012 202.744 77.887H202.431L201.473 81.762H193.723V36.6161H202.744V51.137H203.077C203.379 50.7515 203.796 50.314 204.327 49.8245C204.869 49.3245 205.52 48.8609 206.285 48.4286C207.061 48.0015 207.957 47.6474 208.973 47.3661C209.983 47.0901 211.139 46.9495 212.431 46.9495C214.624 46.9495 216.624 47.3245 218.431 48.0745C220.233 48.8245 221.79 49.9599 223.098 51.4703C224.4 52.9703 225.421 54.8245 226.16 57.0328C226.895 59.2411 227.264 61.7932 227.264 64.6786C227.264 67.5953 226.895 70.1526 226.16 72.3453C225.421 74.5432 224.4 76.3974 223.098 77.9078C221.79 79.4078 220.233 80.5328 218.431 81.2828C216.624 82.0328 214.624 82.4078 212.431 82.4078ZM210.494 74.3453C211.52 74.3453 212.504 74.1682 213.452 73.8036C214.395 73.4286 215.223 72.8453 215.931 72.0536C216.639 71.262 217.191 70.2567 217.598 69.0328C218.014 67.814 218.223 66.3609 218.223 64.6786C218.223 63.0015 218.014 61.5484 217.598 60.3245C217.191 59.1057 216.639 58.0953 215.931 57.3036C215.223 56.5015 214.395 55.9182 213.452 55.5536C212.504 55.1942 211.52 55.012 210.494 55.012C209.462 55.012 208.473 55.1942 207.514 55.5536C206.566 55.9182 205.744 56.5015 205.035 57.3036C204.327 58.0953 203.764 59.1057 203.348 60.3245C202.941 61.5484 202.744 63.0015 202.744 64.6786C202.744 66.3609 202.941 67.814 203.348 69.0328C203.764 70.2567 204.327 71.262 205.035 72.0536C205.744 72.8453 206.566 73.4286 207.514 73.8036C208.473 74.1682 209.462 74.3453 210.494 74.3453Z" fill="black"/>
<path d="M244.785 82.4078C242.295 82.4078 239.978 82.1057 237.827 81.512C235.67 80.9026 233.79 80.0067 232.181 78.8245C230.566 77.6474 229.269 76.1682 228.285 74.387C227.295 72.5953 226.67 70.5432 226.41 68.2203H236.097C236.431 70.0276 237.347 71.4495 238.847 72.4911C240.358 73.5224 242.337 74.0328 244.785 74.0328C247.837 74.0328 249.998 73.5276 251.264 72.512C252.54 71.5015 253.181 70.1786 253.181 68.5536C253.181 67.4286 252.811 66.5328 252.077 65.8661C251.353 65.1995 250.41 64.6682 249.243 64.262C248.077 63.8453 246.743 63.5015 245.243 63.2203C243.743 62.9442 242.191 62.6265 240.597 62.262C239.014 61.887 237.462 61.4234 235.952 60.8661C234.452 60.314 233.118 59.5536 231.952 58.5953C230.795 57.6265 229.853 56.387 229.118 54.887C228.394 53.3765 228.035 51.4807 228.035 49.1995C228.035 47.0067 228.462 45.0953 229.327 43.4703C230.186 41.8349 231.373 40.4599 232.889 39.3453C234.415 38.2203 236.202 37.3817 238.243 36.8245C240.285 36.2724 242.462 35.9911 244.785 35.9911C247.545 35.9911 249.957 36.3245 252.014 36.9911C254.082 37.6474 255.827 38.5745 257.243 39.7828C258.66 40.9911 259.774 42.4026 260.597 44.012C261.415 45.6265 261.952 47.3557 262.202 49.1995H252.535C252.186 47.7411 251.389 46.5745 250.139 45.6995C248.899 44.814 247.228 44.3661 245.118 44.3661C242.67 44.3661 240.873 44.8557 239.722 45.8245C238.582 46.7828 238.014 47.9078 238.014 49.1995C238.014 50.3661 238.379 51.3036 239.118 52.012C239.853 52.7203 240.795 53.3036 241.952 53.762C243.118 54.2099 244.452 54.5901 245.952 54.9078C247.452 55.2307 248.998 55.5849 250.597 55.9703C252.191 56.3609 253.743 56.8349 255.243 57.387C256.743 57.9442 258.066 58.6995 259.222 59.6578C260.389 60.6057 261.337 61.7828 262.077 63.1995C262.811 64.6161 263.181 66.4026 263.181 68.5536C263.181 70.4859 262.774 72.2932 261.972 73.9703C261.181 75.637 260.004 77.1109 258.452 78.387C256.91 79.6526 254.983 80.637 252.681 81.3453C250.389 82.0536 247.754 82.4078 244.785 82.4078Z" fill="black"/>
<path d="M279.419 82.4078C276.836 82.4078 274.508 82.012 272.44 81.2203C270.383 80.4182 268.628 79.262 267.169 77.762C265.711 76.262 264.591 74.4182 263.815 72.2203C263.034 70.0276 262.649 67.512 262.649 64.6786C262.649 61.8453 263.034 59.3349 263.815 57.137C264.591 54.9443 265.711 53.0953 267.169 51.5953C268.628 50.0849 270.383 48.9286 272.44 48.137C274.508 47.3453 276.836 46.9495 279.419 46.9495C281.82 46.9495 283.925 47.2828 285.732 47.9495C287.534 48.6161 289.07 49.5224 290.336 50.6578C291.612 51.7984 292.649 53.1109 293.44 54.5953C294.232 56.0693 294.82 57.6057 295.211 59.1995H286.19C285.55 57.9078 284.711 56.887 283.669 56.137C282.638 55.387 281.221 55.012 279.419 55.012C277.138 55.012 275.279 55.8193 273.836 57.4286C272.404 59.0432 271.69 61.4599 271.69 64.6786C271.69 67.9026 272.404 70.3193 273.836 71.9286C275.279 73.5432 277.138 74.3453 279.419 74.3453C281.221 74.3453 282.638 73.9703 283.669 73.2203C284.711 72.4703 285.55 71.4495 286.19 70.1578H295.211C294.82 71.7984 294.232 73.3453 293.44 74.8036C292.649 76.262 291.612 77.564 290.336 78.6995C289.07 79.8401 287.534 80.7411 285.732 81.4078C283.925 82.0745 281.82 82.4078 279.419 82.4078Z" fill="black"/>
<path d="M306.299 82.4078C304.45 82.4078 302.783 82.1422 301.299 81.6161C299.825 81.0745 298.57 80.3349 297.528 79.387C296.497 78.4286 295.716 77.314 295.174 76.0328C294.643 74.7411 294.382 73.3193 294.382 71.762C294.382 70.2203 294.658 68.8036 295.216 67.512C295.768 66.2203 296.601 65.1057 297.716 64.1578C298.841 63.2151 300.216 62.4807 301.841 61.9495C303.476 61.4078 305.393 61.137 307.591 61.137H315.653V59.512C315.653 57.887 315.138 56.6786 314.112 55.887C313.08 55.0849 311.664 54.6786 309.862 54.6786C308.57 54.6786 307.471 54.9651 306.57 55.5328C305.664 56.0901 305.039 56.7724 304.695 57.5745H295.674C295.966 56.1995 296.487 54.8818 297.237 53.6161C297.997 52.3557 298.971 51.2307 300.153 50.2411C301.33 49.2411 302.747 48.4443 304.403 47.8453C306.054 47.2515 307.976 46.9495 310.174 46.9495C314.726 46.9495 318.283 48.0484 320.841 50.2411C323.408 52.4234 324.695 55.6265 324.695 59.8453V81.762H316.945L315.987 77.887H315.653C315.304 78.3609 314.872 78.8661 314.362 79.4078C313.846 79.9495 313.2 80.4495 312.424 80.9078C311.658 81.3557 310.768 81.7151 309.757 81.9911C308.742 82.2672 307.591 82.4078 306.299 82.4078ZM308.57 74.9911C310.664 74.9911 312.367 74.4026 313.674 73.2203C314.992 72.0432 315.653 70.4859 315.653 68.5536V67.5745H307.924C306.283 67.5745 305.117 67.9234 304.424 68.6161C303.742 69.2984 303.403 70.1318 303.403 71.1161C303.403 72.2411 303.809 73.1734 304.632 73.9078C305.45 74.6318 306.763 74.9911 308.57 74.9911Z" fill="black"/>
<path d="M327.399 47.5953H335.128L336.107 51.4495H336.42C337.529 49.9911 338.857 48.8818 340.399 48.1161C341.951 47.3401 343.633 46.9495 345.441 46.9495C347.284 46.9495 348.982 47.262 350.524 47.887C352.076 48.5015 353.404 49.4078 354.503 50.6161C355.597 51.8245 356.461 53.2776 357.086 54.9703C357.711 56.6682 358.024 58.6109 358.024 60.8036V81.762H349.003V62.0953C349.003 59.8193 348.461 58.0693 347.378 56.8453C346.305 55.6265 344.805 55.012 342.878 55.012C340.93 55.012 339.368 55.6682 338.191 56.9703C337.008 58.2776 336.42 59.9859 336.42 62.0953V81.762H327.399V47.5953Z" fill="black"/>
<mask id="mask0_1_41" style="mask-type:luminance" maskUnits="userSpaceOnUse" x="0" y="0" width="117" height="116">
<path d="M0.567688 0.25H116.125V115.813H0.567688V0.25Z" fill="white"/>
</mask>
<g mask="url(#mask0_1_41)">
<path d="M58.3125 115.74C26.4114 115.74 0.567688 89.7188 0.567688 57.9948C0.567688 26.2708 26.4114 0.25 58.3125 0.25C90.2135 0.25 116.057 26.0938 116.057 57.9948C116.057 89.8958 90.0364 115.74 58.3125 115.74ZM58.3125 3.81771C28.3698 3.81771 4.13019 28.0521 4.13019 57.9948C4.13019 87.9375 28.3698 112.177 58.3125 112.177C88.2552 112.177 112.495 87.9375 112.495 57.9948C112.495 28.0521 88.0781 3.81771 58.3125 3.81771Z" fill="#020203"/>
</g>
<mask id="mask1_1_41" style="mask-type:luminance" maskUnits="userSpaceOnUse" x="32" y="42" width="66" height="54">
<path d="M32.3333 42.6667H97.8437V96H32.3333V42.6667Z" fill="white"/>
</mask>
<g mask="url(#mask1_1_41)">
<path d="M51.2135 66.1823C66.7916 62.2552 82.1562 58.3802 97.8281 54.4271C97.4323 56.026 97.1302 57.3229 96.7916 58.6094C94.8854 65.8073 92.9635 73 91.0833 80.2083C90.8541 81.0938 90.4531 81.5365 89.5416 81.7656C81.0156 83.8698 72.5 86.0156 63.9843 88.1563C55.6146 90.2656 47.2448 92.3906 38.8802 94.5104C37.1041 94.9583 35.3333 95.4063 33.5625 95.8594C32.7656 96.0625 32.4531 95.8854 32.6979 94.9896C33.5677 91.8177 34.4062 88.6406 35.2135 85.4583C35.4271 84.6198 36.0052 84.4167 36.7083 84.2396C46.151 81.8594 55.5833 79.4688 65.026 77.0938C70.5937 75.6875 76.1718 74.3073 81.7396 72.8958C81.9531 72.8438 82.2552 72.6823 82.3021 72.5156C82.5989 71.401 82.8385 70.276 83.1354 68.974C81.9896 69.3073 81.026 69.6146 80.0469 69.8646C66.8489 73.2188 53.651 76.5677 40.4479 79.9063C39.6718 80.099 38.8698 80.1979 38.0781 80.3021C37.6666 80.3594 37.2448 80.3281 36.8281 80.3333C36.8489 79.9427 36.8125 79.5365 36.9062 79.1667C37.4323 77.1146 37.9948 75.0729 38.5364 73.026C40.151 66.9583 41.7812 60.8958 43.3541 54.8177C43.5833 53.9427 44.0364 53.5469 44.875 53.3333C53.0677 51.2865 61.2604 49.2188 69.4531 47.151C74.6198 45.8438 79.7916 44.5365 84.9635 43.2292C86.2187 42.9167 86.3958 43.0573 86.0781 44.2813C85.2812 47.3958 84.4739 50.5052 83.5833 53.5938C83.4531 54.0417 82.8958 54.5677 82.4375 54.6875C77.625 55.9323 72.7864 57.0885 67.9583 58.3021C62.8854 59.5729 57.8177 60.8646 52.7552 62.1771C52.4948 62.2448 52.1666 62.5208 52.0937 62.7656C51.7708 63.8073 51.5364 64.875 51.2135 66.1823Z" fill="#020203"/>
</g>
<mask id="mask2_1_41" style="mask-type:luminance" maskUnits="userSpaceOnUse" x="21" y="19" width="54" height="67">
<path d="M21.0156 19.8646H75V85.3333H21.0156V19.8646Z" fill="white"/>
</mask>
<g mask="url(#mask2_1_41)">
<path d="M63.3385 19.8646C63.1823 20.599 63.0937 21.125 62.9635 21.6406C62.2135 24.5052 61.4322 27.3594 60.7083 30.2292C60.5104 30.9896 60.1354 31.375 59.3489 31.5677C54.7239 32.6823 50.1145 33.8438 45.5104 35.0417C45.1979 35.1198 44.8385 35.5156 44.7343 35.8386C44.4166 36.7969 44.2187 37.7969 43.8906 39.0886C54.2552 36.474 64.375 33.9167 74.8281 31.2708C74.5208 32.599 74.3177 33.5781 74.0625 34.5469C73.4531 36.8802 72.802 39.1979 72.2083 41.5313C71.9791 42.4271 71.5625 42.9271 70.5833 43.1667C62.5885 45.1354 54.6145 47.1771 46.6354 49.1927C44.9687 49.6094 43.3072 50.0313 41.6302 50.4219C41.0468 50.5573 40.7447 50.7761 40.5729 51.4427C38.0416 61.1927 35.4531 70.9375 32.8906 80.6823C32.7031 81.4011 32.3541 81.7917 31.5989 81.9688C28.5781 82.6927 25.5625 83.4792 22.5468 84.2396C21.276 84.5677 21.0416 84.3698 21.375 83.125C22.2708 79.7761 23.2239 76.4427 24.1145 73.0886C25.2604 68.7448 26.3489 64.3854 27.4947 60.0417C29.2135 53.5156 30.9583 46.9948 32.6927 40.4688C33.776 36.3802 34.9062 32.2917 35.927 28.1875C36.2083 27.0573 36.677 26.474 37.8645 26.1823C46 24.1823 54.1145 22.099 62.2395 20.0521C62.5104 19.9792 62.7968 19.9531 63.3385 19.8646Z" fill="#020203"/>
</g>
</svg>
