<svg xmlns="http://www.w3.org/2000/svg" xmlns:xlink="http://www.w3.org/1999/xlink" width="500" zoomAndPan="magnify" viewBox="0 0 375 374.999991" height="500" preserveAspectRatio="xMidYMid meet" version="1.2"><defs><clipPath id="a723053c19"><path d="M 49.175781 144.1875 L 135.84375 144.1875 L 135.84375 230.859375 L 49.175781 230.859375 Z M 49.175781 144.1875 "/></clipPath><clipPath id="e75b71021a"><path d="M 73 176 L 122.132812 176 L 122.132812 216 L 73 216 Z M 73 176 "/></clipPath><clipPath id="3ea7d26938"><path d="M 64.511719 158.898438 L 105 158.898438 L 105 208 L 64.511719 208 Z M 64.511719 158.898438 "/></clipPath></defs><g id="f3fc5b700b"><g style="fill:#000000;fill-opacity:1;"><g transform="translate(143.07373, 205.321461)"><path style="stroke:none" d="M 3.390625 -33.859375 L 26.359375 -33.859375 L 26.359375 -27.328125 L 10.640625 -27.328125 L 10.640625 -19.34375 L 25.140625 -19.34375 L 25.140625 -12.8125 L 10.640625 -12.8125 L 10.640625 0 L 3.390625 0 Z M 3.390625 -33.859375 "/></g></g><g style="fill:#000000;fill-opacity:1;"><g transform="translate(167.592101, 205.321461)"><path style="stroke:none" d="M 10.390625 0.484375 C 9.003906 0.484375 7.753906 0.285156 6.640625 -0.109375 C 5.535156 -0.515625 4.59375 -1.070312 3.8125 -1.78125 C 3.039062 -2.5 2.453125 -3.335938 2.046875 -4.296875 C 1.648438 -5.265625 1.453125 -6.332031 1.453125 -7.5 C 1.453125 -8.65625 1.660156 -9.71875 2.078125 -10.6875 C 2.492188 -11.65625 3.117188 -12.492188 3.953125 -13.203125 C 4.796875 -13.910156 5.828125 -14.460938 7.046875 -14.859375 C 8.273438 -15.265625 9.710938 -15.46875 11.359375 -15.46875 L 17.40625 -15.46875 L 17.40625 -16.6875 C 17.40625 -17.90625 17.019531 -18.8125 16.25 -19.40625 C 15.476562 -20.007812 14.414062 -20.3125 13.0625 -20.3125 C 12.09375 -20.3125 11.269531 -20.097656 10.59375 -19.671875 C 9.914062 -19.253906 9.445312 -18.742188 9.1875 -18.140625 L 2.421875 -18.140625 C 2.640625 -19.171875 3.03125 -20.160156 3.59375 -21.109375 C 4.164062 -22.054688 4.894531 -22.898438 5.78125 -23.640625 C 6.664062 -24.390625 7.726562 -24.988281 8.96875 -25.4375 C 10.207031 -25.882812 11.648438 -26.109375 13.296875 -26.109375 C 16.710938 -26.109375 19.378906 -25.285156 21.296875 -23.640625 C 23.222656 -22.003906 24.1875 -19.601562 24.1875 -16.4375 L 24.1875 0 L 18.375 0 L 17.65625 -2.90625 L 17.40625 -2.90625 C 17.144531 -2.550781 16.820312 -2.171875 16.4375 -1.765625 C 16.050781 -1.359375 15.566406 -0.984375 14.984375 -0.640625 C 14.410156 -0.304688 13.742188 -0.0351562 12.984375 0.171875 C 12.222656 0.378906 11.359375 0.484375 10.390625 0.484375 Z M 12.09375 -5.078125 C 13.664062 -5.078125 14.941406 -5.519531 15.921875 -6.40625 C 16.910156 -7.289062 17.40625 -8.457031 17.40625 -9.90625 L 17.40625 -10.640625 L 11.609375 -10.640625 C 10.378906 -10.640625 9.503906 -10.378906 8.984375 -9.859375 C 8.472656 -9.347656 8.21875 -8.722656 8.21875 -7.984375 C 8.21875 -7.140625 8.523438 -6.441406 9.140625 -5.890625 C 9.753906 -5.347656 10.738281 -5.078125 12.09375 -5.078125 Z M 12.09375 -5.078125 "/></g></g><g style="fill:#000000;fill-opacity:1;"><g transform="translate(190.901441, 205.321461)"><path style="stroke:none" d="M 17.171875 0.484375 C 15.359375 0.484375 13.875 0.128906 12.71875 -0.578125 C 11.5625 -1.285156 10.625 -2.0625 9.90625 -2.90625 L 9.671875 -2.90625 L 8.953125 0 L 3.140625 0 L 3.140625 -33.859375 L 9.90625 -33.859375 L 9.90625 -22.96875 L 10.15625 -22.96875 C 10.382812 -23.257812 10.695312 -23.585938 11.09375 -23.953125 C 11.5 -24.328125 11.988281 -24.675781 12.5625 -25 C 13.144531 -25.320312 13.816406 -25.585938 14.578125 -25.796875 C 15.335938 -26.003906 16.203125 -26.109375 17.171875 -26.109375 C 18.816406 -26.109375 20.316406 -25.828125 21.671875 -25.265625 C 23.023438 -24.703125 24.191406 -23.851562 25.171875 -22.71875 C 26.148438 -21.59375 26.914062 -20.203125 27.46875 -18.546875 C 28.019531 -16.890625 28.296875 -14.976562 28.296875 -12.8125 C 28.296875 -10.625 28.019531 -8.707031 27.46875 -7.0625 C 26.914062 -5.414062 26.148438 -4.023438 25.171875 -2.890625 C 24.191406 -1.765625 23.023438 -0.921875 21.671875 -0.359375 C 20.316406 0.203125 18.816406 0.484375 17.171875 0.484375 Z M 15.71875 -5.5625 C 16.488281 -5.5625 17.226562 -5.695312 17.9375 -5.96875 C 18.644531 -6.25 19.265625 -6.6875 19.796875 -7.28125 C 20.328125 -7.875 20.742188 -8.628906 21.046875 -9.546875 C 21.359375 -10.460938 21.515625 -11.550781 21.515625 -12.8125 C 21.515625 -14.070312 21.359375 -15.160156 21.046875 -16.078125 C 20.742188 -16.992188 20.328125 -17.75 19.796875 -18.34375 C 19.265625 -18.945312 18.644531 -19.382812 17.9375 -19.65625 C 17.226562 -19.925781 16.488281 -20.0625 15.71875 -20.0625 C 14.945312 -20.0625 14.203125 -19.925781 13.484375 -19.65625 C 12.773438 -19.382812 12.15625 -18.945312 11.625 -18.34375 C 11.09375 -17.75 10.671875 -16.992188 10.359375 -16.078125 C 10.054688 -15.160156 9.90625 -14.070312 9.90625 -12.8125 C 9.90625 -11.550781 10.054688 -10.460938 10.359375 -9.546875 C 10.671875 -8.628906 11.09375 -7.875 11.625 -7.28125 C 12.15625 -6.6875 12.773438 -6.25 13.484375 -5.96875 C 14.203125 -5.695312 14.945312 -5.5625 15.71875 -5.5625 Z M 15.71875 -5.5625 "/></g></g><g style="fill:#000000;fill-opacity:1;"><g transform="translate(217.354277, 205.321461)"><path style="stroke:none" d="M 14.984375 0.484375 C 13.117188 0.484375 11.378906 0.257812 9.765625 -0.1875 C 8.148438 -0.644531 6.738281 -1.316406 5.53125 -2.203125 C 4.320312 -3.085938 3.347656 -4.195312 2.609375 -5.53125 C 1.867188 -6.875 1.398438 -8.414062 1.203125 -10.15625 L 8.46875 -10.15625 C 8.71875 -8.800781 9.40625 -7.734375 10.53125 -6.953125 C 11.664062 -6.179688 13.148438 -5.796875 14.984375 -5.796875 C 17.273438 -5.796875 18.894531 -6.175781 19.84375 -6.9375 C 20.800781 -7.695312 21.28125 -8.6875 21.28125 -9.90625 C 21.28125 -10.75 21.003906 -11.421875 20.453125 -11.921875 C 19.910156 -12.421875 19.203125 -12.820312 18.328125 -13.125 C 17.453125 -13.4375 16.453125 -13.695312 15.328125 -13.90625 C 14.203125 -14.113281 13.039062 -14.351562 11.84375 -14.625 C 10.65625 -14.90625 9.492188 -15.253906 8.359375 -15.671875 C 7.234375 -16.085938 6.234375 -16.65625 5.359375 -17.375 C 4.492188 -18.101562 3.785156 -19.03125 3.234375 -20.15625 C 2.691406 -21.289062 2.421875 -22.710938 2.421875 -24.421875 C 2.421875 -26.066406 2.742188 -27.5 3.390625 -28.71875 C 4.035156 -29.945312 4.925781 -30.976562 6.0625 -31.8125 C 7.207031 -32.65625 8.546875 -33.285156 10.078125 -33.703125 C 11.609375 -34.117188 13.242188 -34.328125 14.984375 -34.328125 C 17.054688 -34.328125 18.863281 -34.078125 20.40625 -33.578125 C 21.957031 -33.085938 23.265625 -32.390625 24.328125 -31.484375 C 25.390625 -30.578125 26.226562 -29.519531 26.84375 -28.3125 C 27.457031 -27.101562 27.859375 -25.804688 28.046875 -24.421875 L 20.796875 -24.421875 C 20.535156 -25.515625 19.9375 -26.390625 19 -27.046875 C 18.070312 -27.710938 16.816406 -28.046875 15.234375 -28.046875 C 13.398438 -28.046875 12.050781 -27.679688 11.1875 -26.953125 C 10.332031 -26.234375 9.90625 -25.390625 9.90625 -24.421875 C 9.90625 -23.546875 10.179688 -22.84375 10.734375 -22.3125 C 11.285156 -21.78125 11.992188 -21.34375 12.859375 -21 C 13.734375 -20.664062 14.734375 -20.378906 15.859375 -20.140625 C 16.984375 -19.898438 18.144531 -19.632812 19.34375 -19.34375 C 20.539062 -19.050781 21.703125 -18.695312 22.828125 -18.28125 C 23.953125 -17.863281 24.945312 -17.296875 25.8125 -16.578125 C 26.6875 -15.867188 27.398438 -14.984375 27.953125 -13.921875 C 28.503906 -12.859375 28.78125 -11.519531 28.78125 -9.90625 C 28.78125 -8.457031 28.476562 -7.101562 27.875 -5.84375 C 27.28125 -4.59375 26.398438 -3.488281 25.234375 -2.53125 C 24.078125 -1.582031 22.632812 -0.84375 20.90625 -0.3125 C 19.1875 0.21875 17.210938 0.484375 14.984375 0.484375 Z M 14.984375 0.484375 "/></g></g><g style="fill:#000000;fill-opacity:1;"><g transform="translate(244.048919, 205.321461)"><path style="stroke:none" d="M 14.265625 0.484375 C 12.328125 0.484375 10.582031 0.1875 9.03125 -0.40625 C 7.488281 -1.007812 6.171875 -1.875 5.078125 -3 C 3.984375 -4.125 3.144531 -5.507812 2.5625 -7.15625 C 1.976562 -8.800781 1.6875 -10.6875 1.6875 -12.8125 C 1.6875 -14.9375 1.976562 -16.820312 2.5625 -18.46875 C 3.144531 -20.113281 3.984375 -21.5 5.078125 -22.625 C 6.171875 -23.757812 7.488281 -24.625 9.03125 -25.21875 C 10.582031 -25.8125 12.328125 -26.109375 14.265625 -26.109375 C 16.066406 -26.109375 17.644531 -25.859375 19 -25.359375 C 20.351562 -24.859375 21.503906 -24.179688 22.453125 -23.328125 C 23.410156 -22.472656 24.1875 -21.488281 24.78125 -20.375 C 25.375 -19.269531 25.816406 -18.117188 26.109375 -16.921875 L 19.34375 -16.921875 C 18.863281 -17.890625 18.234375 -18.65625 17.453125 -19.21875 C 16.679688 -19.78125 15.617188 -20.0625 14.265625 -20.0625 C 12.554688 -20.0625 11.160156 -19.457031 10.078125 -18.25 C 9.003906 -17.039062 8.46875 -15.226562 8.46875 -12.8125 C 8.46875 -10.394531 9.003906 -8.582031 10.078125 -7.375 C 11.160156 -6.164062 12.554688 -5.5625 14.265625 -5.5625 C 15.617188 -5.5625 16.679688 -5.84375 17.453125 -6.40625 C 18.234375 -6.96875 18.863281 -7.734375 19.34375 -8.703125 L 26.109375 -8.703125 C 25.816406 -7.472656 25.375 -6.3125 24.78125 -5.21875 C 24.1875 -4.125 23.410156 -3.148438 22.453125 -2.296875 C 21.503906 -1.441406 20.351562 -0.765625 19 -0.265625 C 17.644531 0.234375 16.066406 0.484375 14.265625 0.484375 Z M 14.265625 0.484375 "/></g></g><g style="fill:#000000;fill-opacity:1;"><g transform="translate(268.083678, 205.321461)"><path style="stroke:none" d="M 10.390625 0.484375 C 9.003906 0.484375 7.753906 0.285156 6.640625 -0.109375 C 5.535156 -0.515625 4.59375 -1.070312 3.8125 -1.78125 C 3.039062 -2.5 2.453125 -3.335938 2.046875 -4.296875 C 1.648438 -5.265625 1.453125 -6.332031 1.453125 -7.5 C 1.453125 -8.65625 1.660156 -9.71875 2.078125 -10.6875 C 2.492188 -11.65625 3.117188 -12.492188 3.953125 -13.203125 C 4.796875 -13.910156 5.828125 -14.460938 7.046875 -14.859375 C 8.273438 -15.265625 9.710938 -15.46875 11.359375 -15.46875 L 17.40625 -15.46875 L 17.40625 -16.6875 C 17.40625 -17.90625 17.019531 -18.8125 16.25 -19.40625 C 15.476562 -20.007812 14.414062 -20.3125 13.0625 -20.3125 C 12.09375 -20.3125 11.269531 -20.097656 10.59375 -19.671875 C 9.914062 -19.253906 9.445312 -18.742188 9.1875 -18.140625 L 2.421875 -18.140625 C 2.640625 -19.171875 3.03125 -20.160156 3.59375 -21.109375 C 4.164062 -22.054688 4.894531 -22.898438 5.78125 -23.640625 C 6.664062 -24.390625 7.726562 -24.988281 8.96875 -25.4375 C 10.207031 -25.882812 11.648438 -26.109375 13.296875 -26.109375 C 16.710938 -26.109375 19.378906 -25.285156 21.296875 -23.640625 C 23.222656 -22.003906 24.1875 -19.601562 24.1875 -16.4375 L 24.1875 0 L 18.375 0 L 17.65625 -2.90625 L 17.40625 -2.90625 C 17.144531 -2.550781 16.820312 -2.171875 16.4375 -1.765625 C 16.050781 -1.359375 15.566406 -0.984375 14.984375 -0.640625 C 14.410156 -0.304688 13.742188 -0.0351562 12.984375 0.171875 C 12.222656 0.378906 11.359375 0.484375 10.390625 0.484375 Z M 12.09375 -5.078125 C 13.664062 -5.078125 14.941406 -5.519531 15.921875 -6.40625 C 16.910156 -7.289062 17.40625 -8.457031 17.40625 -9.90625 L 17.40625 -10.640625 L 11.609375 -10.640625 C 10.378906 -10.640625 9.503906 -10.378906 8.984375 -9.859375 C 8.472656 -9.347656 8.21875 -8.722656 8.21875 -7.984375 C 8.21875 -7.140625 8.523438 -6.441406 9.140625 -5.890625 C 9.753906 -5.347656 10.738281 -5.078125 12.09375 -5.078125 Z M 12.09375 -5.078125 "/></g></g><g style="fill:#000000;fill-opacity:1;"><g transform="translate(291.393017, 205.321461)"><path style="stroke:none" d="M 2.90625 -25.625 L 8.703125 -25.625 L 9.4375 -22.734375 L 9.671875 -22.734375 C 10.503906 -23.828125 11.5 -24.660156 12.65625 -25.234375 C 13.820312 -25.816406 15.082031 -26.109375 16.4375 -26.109375 C 17.820312 -26.109375 19.09375 -25.875 20.25 -25.40625 C 21.414062 -24.945312 22.410156 -24.265625 23.234375 -23.359375 C 24.054688 -22.453125 24.703125 -21.363281 25.171875 -20.09375 C 25.640625 -18.820312 25.875 -17.363281 25.875 -15.71875 L 25.875 0 L 19.109375 0 L 19.109375 -14.75 C 19.109375 -16.457031 18.703125 -17.769531 17.890625 -18.6875 C 17.085938 -19.601562 15.960938 -20.0625 14.515625 -20.0625 C 13.054688 -20.0625 11.882812 -19.570312 11 -18.59375 C 10.113281 -17.613281 9.671875 -16.332031 9.671875 -14.75 L 9.671875 0 L 2.90625 0 Z M 2.90625 -25.625 "/></g></g><g clip-rule="nonzero" clip-path="url(#a723053c19)"><path style=" stroke:none;fill-rule:nonzero;fill:#020203;fill-opacity:1;" d="M 92.484375 230.804688 C 68.558594 230.804688 49.175781 211.289062 49.175781 187.496094 C 49.175781 163.703125 68.558594 144.1875 92.484375 144.1875 C 116.410156 144.1875 135.792969 163.570312 135.792969 187.496094 C 135.792969 211.421875 116.277344 230.804688 92.484375 230.804688 Z M 92.484375 146.863281 C 70.027344 146.863281 51.847656 165.039062 51.847656 187.496094 C 51.847656 209.953125 70.027344 228.132812 92.484375 228.132812 C 114.941406 228.132812 133.121094 209.953125 133.121094 187.496094 C 133.121094 165.039062 114.808594 146.863281 92.484375 146.863281 Z M 92.484375 146.863281 "/></g><g clip-rule="nonzero" clip-path="url(#e75b71021a)"><path style=" stroke:none;fill-rule:nonzero;fill:#020203;fill-opacity:1;" d="M 87.160156 193.636719 C 98.84375 190.691406 110.367188 187.785156 122.121094 184.820312 C 121.824219 186.019531 121.597656 186.992188 121.34375 187.957031 C 119.914062 193.355469 118.472656 198.75 117.0625 204.15625 C 116.890625 204.820312 116.589844 205.152344 115.90625 205.324219 C 109.511719 206.902344 103.125 208.511719 96.738281 210.117188 C 90.460938 211.699219 84.183594 213.292969 77.910156 214.882812 C 76.578125 215.21875 75.25 215.554688 73.921875 215.894531 C 73.324219 216.046875 73.089844 215.914062 73.273438 215.242188 C 73.925781 212.863281 74.554688 210.480469 75.160156 208.09375 C 75.320312 207.464844 75.753906 207.3125 76.28125 207.179688 C 83.363281 205.394531 90.4375 203.601562 97.519531 201.820312 C 101.695312 200.765625 105.878906 199.730469 110.054688 198.671875 C 110.214844 198.632812 110.441406 198.511719 110.476562 198.386719 C 110.699219 197.550781 110.878906 196.707031 111.101562 195.730469 C 110.242188 195.980469 109.519531 196.210938 108.785156 196.398438 C 98.886719 198.914062 88.988281 201.425781 79.085938 203.929688 C 78.503906 204.074219 77.902344 204.148438 77.308594 204.226562 C 77 204.269531 76.683594 204.246094 76.371094 204.25 C 76.386719 203.957031 76.359375 203.652344 76.429688 203.375 C 76.824219 201.835938 77.246094 200.304688 77.652344 198.769531 C 78.863281 194.21875 80.085938 189.671875 81.265625 185.113281 C 81.4375 184.457031 81.777344 184.160156 82.40625 184 C 88.550781 182.464844 94.695312 180.914062 100.839844 179.363281 C 104.714844 178.382812 108.59375 177.402344 112.472656 176.421875 C 113.414062 176.1875 113.546875 176.292969 113.308594 177.210938 C 112.710938 179.546875 112.105469 181.878906 111.4375 184.195312 C 111.339844 184.53125 110.921875 184.925781 110.578125 185.015625 C 106.96875 185.949219 103.339844 186.816406 99.71875 187.726562 C 95.914062 188.679688 92.113281 189.648438 88.316406 190.632812 C 88.121094 190.683594 87.875 190.890625 87.820312 191.074219 C 87.578125 191.855469 87.402344 192.65625 87.160156 193.636719 Z M 87.160156 193.636719 "/></g><g clip-rule="nonzero" clip-path="url(#3ea7d26938)"><path style=" stroke:none;fill-rule:nonzero;fill:#020203;fill-opacity:1;" d="M 96.253906 158.898438 C 96.136719 159.449219 96.070312 159.84375 95.972656 160.230469 C 95.410156 162.378906 94.824219 164.519531 94.28125 166.671875 C 94.132812 167.242188 93.851562 167.53125 93.261719 167.675781 C 89.792969 168.511719 86.335938 169.382812 82.882812 170.28125 C 82.648438 170.339844 82.378906 170.636719 82.300781 170.878906 C 82.0625 171.597656 81.914062 172.347656 81.667969 173.316406 C 89.441406 171.355469 97.03125 169.4375 104.871094 167.453125 C 104.640625 168.449219 104.488281 169.183594 104.296875 169.910156 C 103.839844 171.660156 103.351562 173.398438 102.90625 175.148438 C 102.734375 175.820312 102.421875 176.195312 101.6875 176.375 C 95.691406 177.851562 89.710938 179.382812 83.726562 180.894531 C 82.476562 181.207031 81.230469 181.523438 79.972656 181.816406 C 79.535156 181.917969 79.308594 182.082031 79.179688 182.582031 C 77.28125 189.894531 75.339844 197.203125 73.417969 204.511719 C 73.277344 205.050781 73.015625 205.34375 72.449219 205.476562 C 70.183594 206.019531 67.921875 206.609375 65.660156 207.179688 C 64.707031 207.425781 64.53125 207.277344 64.78125 206.34375 C 65.453125 203.832031 66.167969 201.332031 66.835938 198.816406 C 67.695312 195.558594 68.511719 192.289062 69.371094 189.03125 C 70.660156 184.136719 71.96875 179.246094 73.269531 174.351562 C 74.082031 171.285156 74.929688 168.21875 75.695312 165.140625 C 75.90625 164.292969 76.257812 163.855469 77.148438 163.636719 C 83.25 162.136719 89.335938 160.574219 95.429688 159.039062 C 95.632812 158.984375 95.847656 158.964844 96.253906 158.898438 Z M 96.253906 158.898438 "/></g></g></svg>