<svg xmlns="http://www.w3.org/2000/svg" xmlns:xlink="http://www.w3.org/1999/xlink" width="500" zoomAndPan="magnify" viewBox="0 0 375 374.999991" height="500" preserveAspectRatio="xMidYMid meet" version="1.2"><defs/><g id="92e27eb73d"><g style="fill:#000000;fill-opacity:1;"><g transform="translate(97.17169, 201.777443)"><path style="stroke:none" d="M 24.015625 -23.890625 C 24.171875 -23.890625 24.320312 -23.800781 24.46875 -23.625 C 24.625 -23.457031 24.6875 -23.316406 24.65625 -23.203125 L 23.3125 -16.765625 C 23.28125 -16.648438 23.265625 -16.582031 23.265625 -16.5625 C 23.265625 -16.539062 23.1875 -16.53125 23.03125 -16.53125 L 6.78125 -16.53125 L 3.3125 -0.234375 C 3.269531 -0.117188 3.25 -0.0507812 3.25 -0.03125 C 3.25 -0.0078125 3.148438 0 2.953125 0 L -3.65625 0 C -3.8125 0 -3.972656 -0.0820312 -4.140625 -0.25 C -4.316406 -0.425781 -4.382812 -0.578125 -4.34375 -0.703125 L 4.0625 -40.375 C 4.101562 -40.488281 4.128906 -40.550781 4.140625 -40.5625 C 4.160156 -40.582031 4.25 -40.59375 4.40625 -40.59375 L 30.859375 -40.59375 C 31.046875 -40.59375 31.21875 -40.503906 31.375 -40.328125 C 31.53125 -40.160156 31.585938 -40.019531 31.546875 -39.90625 L 30.15625 -33.296875 C 30.125 -33.179688 30.109375 -33.113281 30.109375 -33.09375 C 30.109375 -33.070312 30.007812 -33.0625 29.8125 -33.0625 L 10.265625 -33.0625 L 8.359375 -23.890625 Z M 24.015625 -23.890625 "/></g></g><g style="fill:#000000;fill-opacity:1;"><g transform="translate(130.8129, 201.777443)"><path style="stroke:none" d="M 18.5 -7.484375 C 18.695312 -7.484375 18.867188 -7.394531 19.015625 -7.21875 C 19.171875 -7.039062 19.234375 -6.894531 19.203125 -6.78125 L 17.8125 -0.234375 C 17.769531 -0.117188 17.75 -0.0507812 17.75 -0.03125 C 17.75 -0.0078125 17.648438 0 17.453125 0 L -3.65625 0 C -3.8125 0 -3.972656 -0.0820312 -4.140625 -0.25 C -4.316406 -0.425781 -4.382812 -0.578125 -4.34375 -0.703125 L 4.0625 -40.375 C 4.101562 -40.488281 4.128906 -40.550781 4.140625 -40.5625 C 4.160156 -40.582031 4.25 -40.59375 4.40625 -40.59375 L 10.96875 -40.59375 C 11.15625 -40.59375 11.328125 -40.503906 11.484375 -40.328125 C 11.640625 -40.160156 11.695312 -40.019531 11.65625 -39.90625 L 4.8125 -7.484375 Z M 18.5 -7.484375 "/></g></g><g style="fill:#000000;fill-opacity:1;"><g transform="translate(157.435638, 201.777443)"><path style="stroke:none" d="M 23.84375 -23.84375 C 24.03125 -23.84375 24.191406 -23.753906 24.328125 -23.578125 C 24.460938 -23.398438 24.507812 -23.253906 24.46875 -23.140625 L 23.140625 -16.8125 C 23.097656 -16.695312 23.085938 -16.628906 23.109375 -16.609375 C 23.128906 -16.597656 23.046875 -16.59375 22.859375 -16.59375 L 6.734375 -16.59375 L 4.75 -7.3125 L 23.609375 -7.3125 C 23.796875 -7.3125 23.96875 -7.222656 24.125 -7.046875 C 24.28125 -6.867188 24.335938 -6.722656 24.296875 -6.609375 L 22.96875 -0.234375 C 22.925781 -0.117188 22.90625 -0.0507812 22.90625 -0.03125 C 22.90625 -0.0078125 22.8125 0 22.625 0 L -3.65625 0 C -3.8125 0 -3.960938 -0.0820312 -4.109375 -0.25 C -4.265625 -0.425781 -4.328125 -0.578125 -4.296875 -0.703125 L 4.125 -40.375 C 4.15625 -40.488281 4.171875 -40.550781 4.171875 -40.5625 C 4.171875 -40.582031 4.25 -40.59375 4.40625 -40.59375 L 30.6875 -40.59375 C 30.875 -40.59375 31.046875 -40.503906 31.203125 -40.328125 C 31.359375 -40.160156 31.414062 -40.019531 31.375 -39.90625 L 30.046875 -33.46875 C 30.003906 -33.351562 29.984375 -33.285156 29.984375 -33.265625 C 29.984375 -33.242188 29.890625 -33.234375 29.703125 -33.234375 L 10.265625 -33.234375 L 8.296875 -23.84375 Z M 23.84375 -23.84375 "/></g></g><g style="fill:#000000;fill-opacity:1;"><g transform="translate(191.540862, 201.777443)"><path style="stroke:none" d="M -0.109375 -0.109375 C -0.148438 -0.0351562 -0.285156 0 -0.515625 0 L -7.65625 0 C -7.882812 0 -8.085938 -0.101562 -8.265625 -0.3125 C -8.441406 -0.53125 -8.488281 -0.71875 -8.40625 -0.875 L 16.125 -41.640625 C 16.238281 -41.835938 16.421875 -41.867188 16.671875 -41.734375 C 16.921875 -41.597656 17.046875 -41.429688 17.046875 -41.234375 L 24.25 -0.46875 C 24.320312 -0.3125 24.359375 -0.191406 24.359375 -0.109375 C 24.359375 -0.0351562 24.257812 0 24.0625 0 L 16.875 0 C 16.800781 0 16.664062 -0.0546875 16.46875 -0.171875 C 16.28125 -0.285156 16.203125 -0.382812 16.234375 -0.46875 L 15.546875 -4.578125 L 2.3125 -4.578125 Z M 13.109375 -23.609375 L 6.265625 -11.421875 L 14.4375 -11.421875 Z M 13.109375 -23.609375 "/></g></g><g style="fill:#000000;fill-opacity:1;"><g transform="translate(224.660046, 201.777443)"><path style="stroke:none" d="M 39.4375 -0.234375 C 39.394531 -0.117188 39.375 -0.0507812 39.375 -0.03125 C 39.375 -0.0078125 39.28125 0 39.09375 0 L 32.53125 0 C 32.382812 0 32.222656 -0.0820312 32.046875 -0.25 C 31.867188 -0.425781 31.800781 -0.578125 31.84375 -0.703125 L 36.765625 -23.3125 L 21.921875 -1.6875 C 21.878906 -1.601562 21.765625 -1.5625 21.578125 -1.5625 L 15.375 -1.5625 C 15.289062 -1.5625 15.148438 -1.628906 14.953125 -1.765625 C 14.765625 -1.898438 14.691406 -1.988281 14.734375 -2.03125 L 8.46875 -23.78125 L 3.359375 -0.234375 C 3.328125 -0.117188 3.3125 -0.0507812 3.3125 -0.03125 C 3.3125 -0.0078125 3.210938 0 3.015625 0 L -3.53125 0 C -3.6875 0 -3.851562 -0.0820312 -4.03125 -0.25 C -4.207031 -0.425781 -4.273438 -0.578125 -4.234375 -0.703125 L 4.171875 -40.375 C 4.210938 -40.488281 4.242188 -40.550781 4.265625 -40.5625 C 4.285156 -40.582031 4.375 -40.59375 4.53125 -40.59375 L 11.1875 -40.59375 C 11.269531 -40.59375 11.425781 -40.535156 11.65625 -40.421875 C 11.882812 -40.304688 11.960938 -40.210938 11.890625 -40.140625 L 19.84375 -10.4375 L 40.140625 -40.484375 C 40.171875 -40.554688 40.285156 -40.59375 40.484375 -40.59375 L 47.15625 -40.59375 C 47.34375 -40.59375 47.515625 -40.503906 47.671875 -40.328125 C 47.828125 -40.160156 47.882812 -40.019531 47.84375 -39.90625 Z M 39.4375 -0.234375 "/></g></g></g></svg>