<svg width="241" height="57" viewBox="0 0 241 57" fill="none" xmlns="http://www.w3.org/2000/svg">
<path d="M38.5831 24.1824C38.7914 24.1824 38.9893 24.3022 39.1873 24.5366C39.3956 24.7606 39.4789 24.9481 39.4373 25.0991L37.6456 33.6824C37.6039 33.8387 37.5831 33.9272 37.5831 33.9533C37.5831 33.9845 37.4789 33.9949 37.2706 33.9949H15.6039L10.9789 55.7241C10.9216 55.8804 10.8956 55.9689 10.8956 55.9949C10.8956 56.0262 10.7602 56.0366 10.4998 56.0366H1.68727C1.47893 56.0366 1.26539 55.9272 1.04143 55.7033C0.807058 55.4689 0.718516 55.2658 0.770599 55.0991L11.9789 2.20327C12.031 2.05223 12.0675 1.9689 12.0831 1.95327C12.1091 1.92723 12.2289 1.91161 12.4373 1.91161H47.7081C47.9581 1.91161 48.1873 2.0314 48.3956 2.26577C48.6039 2.48973 48.6769 2.67723 48.6248 2.82827L46.7706 11.6408C46.7289 11.797 46.7081 11.8856 46.7081 11.9116C46.7081 11.9429 46.5727 11.9533 46.3123 11.9533H20.2498L17.7081 24.1824H38.5831Z" fill="black"/>
<path d="M76.0839 46.0574C76.3443 46.0574 76.5735 46.1772 76.7714 46.4116C76.9797 46.6512 77.0631 46.8439 77.0214 46.9949L75.1672 55.7241C75.1099 55.8804 75.0839 55.9689 75.0839 55.9949C75.0839 56.0262 74.9485 56.0366 74.6881 56.0366H46.5422C46.3339 56.0366 46.1203 55.9272 45.8964 55.7033C45.662 55.4689 45.5735 55.2658 45.6255 55.0991L56.8339 2.20327C56.886 2.05223 56.9224 1.9689 56.938 1.95327C56.9641 1.92723 57.0839 1.91161 57.2922 1.91161H66.0422C66.2922 1.91161 66.5214 2.0314 66.7297 2.26577C66.938 2.48973 67.011 2.67723 66.9589 2.82827L57.8339 46.0574H76.0839Z" fill="black"/>
<path d="M118.706 24.2449C118.956 24.2449 119.169 24.3647 119.352 24.5991C119.529 24.8387 119.591 25.0314 119.539 25.1824L117.768 33.6199C117.711 33.7762 117.695 33.8647 117.727 33.8908C117.753 33.9064 117.643 33.9116 117.393 33.9116H95.8934L93.2475 46.2866H118.393C118.643 46.2866 118.873 46.4064 119.081 46.6408C119.289 46.8804 119.362 47.0731 119.31 47.2241L117.539 55.7241C117.482 55.8804 117.456 55.9689 117.456 55.9949C117.456 56.0262 117.331 56.0366 117.081 56.0366H82.0392C81.8309 56.0366 81.633 55.9272 81.435 55.7033C81.2267 55.4689 81.1434 55.2658 81.185 55.0991L92.4142 2.20327C92.4559 2.05223 92.4767 1.9689 92.4767 1.95327C92.4767 1.92723 92.5809 1.91161 92.7892 1.91161H127.831C128.081 1.91161 128.31 2.0314 128.518 2.26577C128.727 2.48973 128.8 2.67723 128.748 2.82827L126.977 11.4116C126.919 11.5679 126.893 11.6564 126.893 11.6824C126.893 11.7137 126.768 11.7241 126.518 11.7241H100.602L97.9767 24.2449H118.706Z" fill="black"/>
<path d="M132.242 55.8908C132.19 55.9897 132.008 56.0366 131.7 56.0366H122.179C121.877 56.0366 121.607 55.9012 121.367 55.6199C121.133 55.3283 121.07 55.0783 121.179 54.8699L153.888 0.515764C154.039 0.255347 154.284 0.21368 154.617 0.390764C154.95 0.573056 155.117 0.797014 155.117 1.05743L164.721 55.4116C164.815 55.6199 164.867 55.7814 164.867 55.8908C164.867 55.9897 164.732 56.0366 164.471 56.0366H154.888C154.789 56.0366 154.607 55.9637 154.346 55.8074C154.096 55.6564 153.992 55.5262 154.034 55.4116L153.117 49.9324H135.471L132.242 55.8908ZM149.867 24.5574L140.742 40.8074H151.638L149.867 24.5574Z" fill="black"/>
<path d="M229.13 55.7241C229.073 55.8804 229.047 55.9689 229.047 55.9949C229.047 56.0262 228.922 56.0366 228.672 56.0366H219.922C219.724 56.0366 219.51 55.9272 219.276 55.7033C219.036 55.4689 218.948 55.2658 219.005 55.0991L225.568 24.9533L205.776 53.7866C205.719 53.9012 205.568 53.9533 205.318 53.9533H197.047C196.932 53.9533 196.745 53.8647 196.484 53.6824C196.234 53.5054 196.135 53.3856 196.193 53.3283L187.838 24.3283L181.026 55.7241C180.984 55.8804 180.963 55.9689 180.963 55.9949C180.963 56.0262 180.828 56.0366 180.568 56.0366H171.838C171.63 56.0366 171.411 55.9272 171.172 55.7033C170.937 55.4689 170.849 55.2658 170.901 55.0991L182.109 2.20327C182.161 2.05223 182.203 1.9689 182.234 1.95327C182.26 1.92723 182.38 1.91161 182.588 1.91161H191.463C191.573 1.91161 191.781 1.98973 192.088 2.14077C192.391 2.29702 192.495 2.42202 192.401 2.51577L203.005 42.1199L230.068 2.05744C230.109 1.96369 230.26 1.91161 230.526 1.91161H239.422C239.672 1.91161 239.901 2.0314 240.109 2.26577C240.318 2.48973 240.391 2.67723 240.338 2.82827L229.13 55.7241Z" fill="black"/>
</svg>
