<svg width="249" height="180" viewBox="0 0 249 180" fill="none" xmlns="http://www.w3.org/2000/svg">
<path d="M10.3542 105.33V78.5591H35.1667V105.33H50.2917V124.247H35.1667V147.08C35.1667 153.705 37.0313 157.017 40.7708 157.017C41.6979 157.017 42.6771 156.84 43.7083 156.476C44.7344 156.101 45.526 155.726 46.0833 155.351L46.9375 154.788L53.1042 174.83C47.7708 177.814 41.6927 179.309 34.875 179.309C30.2083 179.309 26.1927 178.486 22.8333 176.851C19.4687 175.215 16.9219 173.017 15.1875 170.267C13.4635 167.517 12.2292 164.622 11.4792 161.58C10.7292 158.538 10.3542 155.299 10.3542 151.851V124.247H0V105.33H10.3542Z" fill="#222222"/>
<path d="M54.4977 168.309C47.7737 160.976 44.4143 151.986 44.4143 141.33C44.4143 130.679 47.7737 121.663 54.4977 114.288C61.2164 106.913 69.7685 103.226 80.1435 103.226C89.6695 103.226 97.5185 106.215 103.685 112.184V105.33H128.477V177.205H103.956V169.08H103.685C97.5185 175.903 89.6695 179.309 80.1435 179.309C69.7685 179.309 61.2164 175.642 54.4977 168.309ZM75.581 129.142C72.357 132.325 70.7477 136.392 70.7477 141.351C70.7477 146.299 72.2893 150.33 75.3727 153.455C78.456 156.58 82.5185 158.142 87.5602 158.142C92.4195 158.142 96.4143 156.559 99.5393 153.392C102.675 150.215 104.248 146.195 104.248 141.33C104.248 136.387 102.633 132.325 99.4143 129.142C96.1904 125.965 92.2372 124.372 87.5602 124.372C82.7945 124.372 78.7997 125.965 75.581 129.142Z" fill="#222222"/>
<path d="M133.391 177.205V56.705H158.183V177.205H133.391Z" fill="#222222"/>
<path d="M245.199 105.33L211.011 139.642L248.553 177.205H216.616L187.886 148.476V177.205H163.095V56.705H187.886V130.413L212.97 105.33H245.199Z" fill="#222222"/>
<mask id="mask0_1_110" style="mask-type:luminance" maskUnits="userSpaceOnUse" x="67" y="123" width="58" height="44">
<path d="M67.53 123.213H124.926V166.864H67.53V123.213Z" fill="white"/>
</mask>
<g mask="url(#mask0_1_110)">
<path d="M67.53 123.213H124.988V166.864H67.53V123.213Z" fill="#222222"/>
</g>
<mask id="mask1_1_110" style="mask-type:luminance" maskUnits="userSpaceOnUse" x="61" y="123" width="52" height="44">
<path d="M61.7956 123.213H112.379V166.421H61.7956V123.213Z" fill="white"/>
</mask>
<g mask="url(#mask1_1_110)">
<path fill-rule="evenodd" clip-rule="evenodd" d="M96.6341 146.03C94.9362 146.03 93.5612 144.655 93.5612 142.957C93.5612 141.259 94.9362 139.884 96.6341 139.884C98.3268 139.884 99.7071 141.259 99.7071 142.957C99.7071 144.655 98.3268 146.03 96.6341 146.03ZM86.3893 146.03C84.6914 146.03 83.3164 144.655 83.3164 142.957C83.3164 141.259 84.6914 139.884 86.3893 139.884C88.0873 139.884 89.4623 141.259 89.4623 142.957C89.4623 144.655 88.0873 146.03 86.3893 146.03ZM76.1498 146.03C74.4518 146.03 73.0768 144.655 73.0768 142.957C73.0768 141.259 74.4518 139.884 76.1498 139.884C77.8477 139.884 79.2227 141.259 79.2227 142.957C79.2227 144.655 77.8477 146.03 76.1498 146.03ZM87.1966 123.489C73.4206 123.218 62.082 131.707 61.8685 142.452C61.7956 146.187 63.0768 149.702 65.3581 152.707C69.2852 157.749 64.9987 166.416 64.9987 166.416L77.6445 160.968C80.3685 161.827 83.3268 162.332 86.431 162.39C100.202 162.666 111.54 154.176 111.754 143.431C111.967 132.692 100.973 123.765 87.1966 123.489Z" fill="white"/>
</g>
<path d="M38.0055 19.0208V27.5625C36.9899 32.2448 34.7607 35.7864 31.318 38.1875C27.8701 40.5937 24.0368 41.7916 19.818 41.7916C14.4951 41.7916 9.96384 39.8073 6.21384 35.8333C2.47426 31.8489 0.609673 27.0364 0.609673 21.3958C0.609673 15.6771 2.43259 10.8437 6.08884 6.89581C9.75551 2.93748 14.3284 0.958313 19.818 0.958313C26.2034 0.958313 31.2659 3.20311 35.0055 7.68748L29.1305 14.1458C27.0159 10.7708 24.0888 9.08331 20.3388 9.08331C17.5576 9.08331 15.193 10.2864 13.2347 12.6875C11.2763 15.0937 10.2972 17.9948 10.2972 21.3958C10.2972 24.7448 11.2763 27.6041 13.2347 29.9791C15.193 32.3541 17.5576 33.5416 20.3388 33.5416C22.6305 33.5416 24.6201 32.8489 26.318 31.4583C28.0263 30.0729 28.8805 28.2291 28.8805 25.9375H19.818V19.0208H38.0055Z" fill="#222222"/>
<path d="M50.9784 38.1666C48.2544 35.75 46.8951 32.6458 46.8951 28.8541C46.8951 25.0625 48.3117 21.9531 51.1451 19.5208C53.9784 17.0781 57.4784 15.8541 61.6451 15.8541C65.7544 15.8541 69.218 17.0833 72.0409 19.5416C74.8586 21.9895 76.2701 25.0937 76.2701 28.8541C76.2701 32.6198 74.8846 35.7187 72.1242 38.1458C69.3742 40.5781 65.8794 41.7916 61.6451 41.7916C57.2544 41.7916 53.6971 40.5833 50.9784 38.1666ZM57.5201 24.7083C56.4211 25.7812 55.8742 27.1614 55.8742 28.8541C55.8742 30.552 56.3951 31.9323 57.4367 33C58.4888 34.0573 59.8794 34.5833 61.6034 34.5833C63.2544 34.5833 64.6138 34.0416 65.6867 32.9583C66.7544 31.875 67.2909 30.5104 67.2909 28.8541C67.2909 27.1614 66.7388 25.7812 65.6451 24.7083C64.5461 23.625 63.1971 23.0833 61.6034 23.0833C59.9784 23.0833 58.6138 23.625 57.5201 24.7083Z" fill="#222222"/>
<path d="M89.2392 38.1666C86.5152 35.75 85.1559 32.6458 85.1559 28.8541C85.1559 25.0625 86.5725 21.9531 89.4059 19.5208C92.2392 17.0781 95.7392 15.8541 99.9059 15.8541C104.015 15.8541 107.479 17.0833 110.302 19.5416C113.119 21.9895 114.531 25.0937 114.531 28.8541C114.531 32.6198 113.145 35.7187 110.385 38.1458C107.635 40.5781 104.14 41.7916 99.9059 41.7916C95.5152 41.7916 91.9579 40.5833 89.2392 38.1666ZM95.7809 24.7083C94.6819 25.7812 94.135 27.1614 94.135 28.8541C94.135 30.552 94.6559 31.9323 95.6975 33C96.7496 34.0573 98.1402 34.5833 99.8642 34.5833C101.515 34.5833 102.875 34.0416 103.948 32.9583C105.015 31.875 105.552 30.5104 105.552 28.8541C105.552 27.1614 105 25.7812 103.906 24.7083C102.807 23.625 101.458 23.0833 99.8642 23.0833C98.2392 23.0833 96.8746 23.625 95.7809 24.7083Z" fill="#222222"/>
<path d="M126.854 38.0417C124.562 35.5417 123.417 32.4792 123.417 28.8542C123.417 25.2292 124.562 22.1615 126.854 19.6458C129.146 17.1198 132.052 15.8542 135.583 15.8542C138.833 15.8542 141.51 16.875 143.625 18.9167V0H152.083V41.0833H143.708V38.3125H143.625C141.51 40.6354 138.833 41.7917 135.583 41.7917C132.052 41.7917 129.146 40.5417 126.854 38.0417ZM134.042 24.7083C132.943 25.7813 132.396 27.1615 132.396 28.8542C132.396 30.5521 132.917 31.9323 133.958 33C135.01 34.0573 136.401 34.5833 138.125 34.5833C139.776 34.5833 141.135 34.0417 142.208 32.9583C143.276 31.875 143.812 30.5104 143.812 28.8542C143.812 27.1615 143.26 25.7813 142.167 24.7083C141.068 23.625 139.719 23.0833 138.125 23.0833C136.5 23.0833 135.135 23.625 134.042 24.7083Z" fill="#222222"/>
<path d="M197.062 41.0833L195.207 17.7291H194.978L186.895 40.8541H181.541L173.478 17.7291H173.228L171.374 41.0833H162.395L165.916 1.66663H175.478L184.228 24.4166L192.957 1.66663H202.52L206.041 41.0833H197.062Z" fill="#222222"/>
<path d="M234.67 16.5833H244.399L225.149 53.5H215.399L223.857 37.2708L212.253 16.5833H222.003L228.836 29.1458L234.67 16.5833Z" fill="#222222"/>
</svg>
