<svg xmlns="http://www.w3.org/2000/svg" xmlns:xlink="http://www.w3.org/1999/xlink" width="500" zoomAndPan="magnify" viewBox="0 0 375 374.999991" height="500" preserveAspectRatio="xMidYMid meet" version="1.2"><defs><clipPath id="9aa8bf2bf3"><path d="M 147.03125 196.089844 L 190.078125 196.089844 L 190.078125 228.828125 L 147.03125 228.828125 Z M 147.03125 196.089844 "/></clipPath><clipPath id="52c15cdec3"><path d="M 142.730469 196.089844 L 180.667969 196.089844 L 180.667969 228.496094 L 142.730469 228.496094 Z M 142.730469 196.089844 "/></clipPath></defs><g id="93aa42c923"><g style="fill:#222222;fill-opacity:1;"><g transform="translate(94.696283, 236.584148)"><path style="stroke:none" d="M 9.453125 -53.90625 L 9.453125 -73.984375 L 28.0625 -73.984375 L 28.0625 -53.90625 L 39.40625 -53.90625 L 39.40625 -39.71875 L 28.0625 -39.71875 L 28.0625 -22.59375 C 28.0625 -17.625 29.460938 -15.140625 32.265625 -15.140625 C 32.960938 -15.140625 33.695312 -15.273438 34.46875 -15.546875 C 35.238281 -15.828125 35.832031 -16.109375 36.25 -16.390625 L 36.890625 -16.8125 L 41.515625 -1.78125 C 37.515625 0.457031 32.957031 1.578125 27.84375 1.578125 C 24.34375 1.578125 21.332031 0.960938 18.8125 -0.265625 C 16.289062 -1.492188 14.378906 -3.140625 13.078125 -5.203125 C 11.785156 -7.265625 10.859375 -9.4375 10.296875 -11.71875 C 9.734375 -14 9.453125 -16.429688 9.453125 -19.015625 L 9.453125 -39.71875 L 1.6875 -39.71875 L 1.6875 -53.90625 Z M 9.453125 -53.90625 "/></g></g><g style="fill:#222222;fill-opacity:1;"><g transform="translate(127.272652, 236.584148)"><path style="stroke:none" d="M 9.984375 -6.671875 C 4.941406 -12.171875 2.421875 -18.914062 2.421875 -26.90625 C 2.421875 -34.894531 4.941406 -41.65625 9.984375 -47.1875 C 15.023438 -52.71875 21.4375 -55.484375 29.21875 -55.484375 C 36.363281 -55.484375 42.25 -53.242188 46.875 -48.765625 L 46.875 -53.90625 L 65.46875 -53.90625 L 65.46875 0 L 47.078125 0 L 47.078125 -6.09375 L 46.875 -6.09375 C 42.25 -0.976562 36.363281 1.578125 29.21875 1.578125 C 21.4375 1.578125 15.023438 -1.171875 9.984375 -6.671875 Z M 25.796875 -36.046875 C 23.378906 -33.660156 22.171875 -30.609375 22.171875 -26.890625 C 22.171875 -23.179688 23.328125 -20.15625 25.640625 -17.8125 C 27.953125 -15.46875 31 -14.296875 34.78125 -14.296875 C 38.425781 -14.296875 41.421875 -15.484375 43.765625 -17.859375 C 46.117188 -20.242188 47.296875 -23.257812 47.296875 -26.90625 C 47.296875 -30.613281 46.085938 -33.660156 43.671875 -36.046875 C 41.253906 -38.429688 38.289062 -39.625 34.78125 -39.625 C 31.207031 -39.625 28.210938 -38.429688 25.796875 -36.046875 Z M 25.796875 -36.046875 "/></g></g><g style="fill:#222222;fill-opacity:1;"><g transform="translate(190.114747, 236.584148)"><path style="stroke:none" d="M 6.3125 0 L 6.3125 -90.375 L 24.90625 -90.375 L 24.90625 0 Z M 6.3125 0 "/></g></g><g style="fill:#222222;fill-opacity:1;"><g transform="translate(212.392369, 236.584148)"><path style="stroke:none" d="M 67.890625 -53.90625 L 42.25 -28.171875 L 70.40625 0 L 46.453125 0 L 24.90625 -21.546875 L 24.90625 0 L 6.3125 0 L 6.3125 -90.375 L 24.90625 -90.375 L 24.90625 -35.09375 L 43.71875 -53.90625 Z M 67.890625 -53.90625 "/></g></g><g clip-rule="nonzero" clip-path="url(#9aa8bf2bf3)"><path style=" stroke:none;fill-rule:nonzero;fill:#222222;fill-opacity:1;" d="M 147.03125 196.089844 L 190.125 196.089844 L 190.125 228.828125 L 147.03125 228.828125 Z M 147.03125 196.089844 "/></g><g clip-rule="nonzero" clip-path="url(#52c15cdec3)"><path style=" stroke:none;fill-rule:evenodd;fill:#ffffff;fill-opacity:1;" d="M 168.859375 213.203125 C 167.585938 213.203125 166.554688 212.171875 166.554688 210.898438 C 166.554688 209.625 167.585938 208.59375 168.859375 208.59375 C 170.128906 208.59375 171.164062 209.625 171.164062 210.898438 C 171.164062 212.171875 170.128906 213.203125 168.859375 213.203125 Z M 161.175781 213.203125 C 159.902344 213.203125 158.871094 212.171875 158.871094 210.898438 C 158.871094 209.625 159.902344 208.59375 161.175781 208.59375 C 162.449219 208.59375 163.480469 209.625 163.480469 210.898438 C 163.480469 212.171875 162.449219 213.203125 161.175781 213.203125 Z M 153.496094 213.203125 C 152.222656 213.203125 151.191406 212.171875 151.191406 210.898438 C 151.191406 209.625 152.222656 208.59375 153.496094 208.59375 C 154.769531 208.59375 155.800781 209.625 155.800781 210.898438 C 155.800781 212.171875 154.769531 213.203125 153.496094 213.203125 Z M 161.78125 196.296875 C 151.449219 196.09375 142.945312 202.460938 142.785156 210.519531 C 142.730469 213.320312 143.691406 215.957031 145.402344 218.210938 C 148.347656 221.992188 145.132812 228.492188 145.132812 228.492188 L 154.617188 224.40625 C 156.660156 225.050781 158.878906 225.429688 161.207031 225.472656 C 171.535156 225.679688 180.039062 219.3125 180.199219 211.253906 C 180.359375 203.199219 172.113281 196.503906 161.78125 196.296875 "/></g><g style="fill:#222222;fill-opacity:1;"><g transform="translate(96.012908, 134.492913)"><path style="stroke:none" d="M 28.875 -16.546875 L 28.875 -10.140625 C 28.113281 -6.628906 26.441406 -3.972656 23.859375 -2.171875 C 21.273438 -0.367188 18.398438 0.53125 15.234375 0.53125 C 11.242188 0.53125 7.84375 -0.957031 5.03125 -3.9375 C 2.226562 -6.925781 0.828125 -10.535156 0.828125 -14.765625 C 0.828125 -19.054688 2.195312 -22.679688 4.9375 -25.640625 C 7.6875 -28.609375 11.117188 -30.09375 15.234375 -30.09375 C 20.023438 -30.09375 23.820312 -28.410156 26.625 -25.046875 L 22.21875 -20.203125 C 20.632812 -22.734375 18.4375 -24 15.625 -24 C 13.539062 -24 11.765625 -23.097656 10.296875 -21.296875 C 8.828125 -19.492188 8.09375 -17.316406 8.09375 -14.765625 C 8.09375 -12.253906 8.828125 -10.109375 10.296875 -8.328125 C 11.765625 -6.546875 13.539062 -5.65625 15.625 -5.65625 C 17.34375 -5.65625 18.835938 -6.175781 20.109375 -7.21875 C 21.390625 -8.257812 22.03125 -9.640625 22.03125 -11.359375 L 15.234375 -11.359375 L 15.234375 -16.546875 Z M 28.875 -16.546875 "/></g></g><g style="fill:#222222;fill-opacity:1;"><g transform="translate(130.726941, 134.492913)"><path style="stroke:none" d="M 3.890625 -2.1875 C 1.847656 -4 0.828125 -6.328125 0.828125 -9.171875 C 0.828125 -12.015625 1.890625 -14.347656 4.015625 -16.171875 C 6.140625 -18.003906 8.765625 -18.921875 11.890625 -18.921875 C 14.972656 -18.921875 17.570312 -18 19.6875 -16.15625 C 21.800781 -14.320312 22.859375 -11.992188 22.859375 -9.171875 C 22.859375 -6.347656 21.820312 -4.023438 19.75 -2.203125 C 17.6875 -0.378906 15.066406 0.53125 11.890625 0.53125 C 8.597656 0.53125 5.929688 -0.375 3.890625 -2.1875 Z M 8.796875 -12.28125 C 7.972656 -11.476562 7.5625 -10.441406 7.5625 -9.171875 C 7.5625 -7.898438 7.953125 -6.863281 8.734375 -6.0625 C 9.523438 -5.269531 10.566406 -4.875 11.859375 -4.875 C 13.097656 -4.875 14.117188 -5.28125 14.921875 -6.09375 C 15.722656 -6.90625 16.125 -7.929688 16.125 -9.171875 C 16.125 -10.441406 15.710938 -11.476562 14.890625 -12.28125 C 14.066406 -13.09375 13.054688 -13.5 11.859375 -13.5 C 10.640625 -13.5 9.617188 -13.09375 8.796875 -12.28125 Z M 8.796875 -12.28125 "/></g></g><g style="fill:#222222;fill-opacity:1;"><g transform="translate(159.422539, 134.492913)"><path style="stroke:none" d="M 3.890625 -2.1875 C 1.847656 -4 0.828125 -6.328125 0.828125 -9.171875 C 0.828125 -12.015625 1.890625 -14.347656 4.015625 -16.171875 C 6.140625 -18.003906 8.765625 -18.921875 11.890625 -18.921875 C 14.972656 -18.921875 17.570312 -18 19.6875 -16.15625 C 21.800781 -14.320312 22.859375 -11.992188 22.859375 -9.171875 C 22.859375 -6.347656 21.820312 -4.023438 19.75 -2.203125 C 17.6875 -0.378906 15.066406 0.53125 11.890625 0.53125 C 8.597656 0.53125 5.929688 -0.375 3.890625 -2.1875 Z M 8.796875 -12.28125 C 7.972656 -11.476562 7.5625 -10.441406 7.5625 -9.171875 C 7.5625 -7.898438 7.953125 -6.863281 8.734375 -6.0625 C 9.523438 -5.269531 10.566406 -4.875 11.859375 -4.875 C 13.097656 -4.875 14.117188 -5.28125 14.921875 -6.09375 C 15.722656 -6.90625 16.125 -7.929688 16.125 -9.171875 C 16.125 -10.441406 15.710938 -11.476562 14.890625 -12.28125 C 14.066406 -13.09375 13.054688 -13.5 11.859375 -13.5 C 10.640625 -13.5 9.617188 -13.09375 8.796875 -12.28125 Z M 8.796875 -12.28125 "/></g></g><g style="fill:#222222;fill-opacity:1;"><g transform="translate(188.118137, 134.492913)"><path style="stroke:none" d="M 3.40625 -2.28125 C 1.6875 -4.15625 0.828125 -6.453125 0.828125 -9.171875 C 0.828125 -11.890625 1.6875 -14.191406 3.40625 -16.078125 C 5.125 -17.972656 7.304688 -18.921875 9.953125 -18.921875 C 12.390625 -18.921875 14.398438 -18.15625 15.984375 -16.625 L 15.984375 -30.8125 L 22.328125 -30.8125 L 22.328125 0 L 16.046875 0 L 16.046875 -2.078125 L 15.984375 -2.078125 C 14.398438 -0.335938 12.390625 0.53125 9.953125 0.53125 C 7.304688 0.53125 5.125 -0.40625 3.40625 -2.28125 Z M 8.796875 -12.28125 C 7.972656 -11.476562 7.5625 -10.441406 7.5625 -9.171875 C 7.5625 -7.898438 7.953125 -6.863281 8.734375 -6.0625 C 9.523438 -5.269531 10.566406 -4.875 11.859375 -4.875 C 13.097656 -4.875 14.117188 -5.28125 14.921875 -6.09375 C 15.722656 -6.90625 16.125 -7.929688 16.125 -9.171875 C 16.125 -10.441406 15.710938 -11.476562 14.890625 -12.28125 C 14.066406 -13.09375 13.054688 -13.5 11.859375 -13.5 C 10.640625 -13.5 9.617188 -13.09375 8.796875 -12.28125 Z M 8.796875 -12.28125 "/></g></g><g style="fill:#222222;fill-opacity:1;"><g transform="translate(217.601867, 134.492913)"><path style="stroke:none" d="M 26.578125 0 L 25.1875 -17.515625 L 25.015625 -17.515625 L 18.953125 -0.171875 L 14.9375 -0.171875 L 8.890625 -17.515625 L 8.703125 -17.515625 L 7.3125 0 L 0.578125 0 L 3.21875 -29.5625 L 10.390625 -29.5625 L 16.953125 -12.5 L 23.5 -29.5625 L 30.671875 -29.5625 L 33.3125 0 Z M 26.578125 0 "/></g></g><g style="fill:#222222;fill-opacity:1;"><g transform="translate(256.292361, 134.492913)"><path style="stroke:none" d="M 16.09375 -18.375 L 23.390625 -18.375 L 8.953125 9.3125 L 1.640625 9.3125 L 7.984375 -2.859375 L -0.71875 -18.375 L 6.59375 -18.375 L 11.71875 -8.953125 Z M 16.09375 -18.375 "/></g></g></g></svg>