<svg width="323" height="50" viewBox="0 0 323 50" fill="none" xmlns="http://www.w3.org/2000/svg">
<path d="M39.4502 10.8783L19.9034 30.4252L39.4502 49.9721H31.5752L14.82 33.2169H5.93981V49.9721H0.356476V10.8783H5.93981V27.6335H14.82L31.5752 10.8783H39.4502Z" fill="#545454"/>
<path d="M92.0028 10.8783V49.9721H86.4194L58.4924 19.9252V49.9721H52.909V10.8783H58.4924L86.4194 40.4773V10.8783H92.0028Z" fill="#545454"/>
<path d="M141.207 38.8002V22.0502C141.207 20.5242 140.655 19.2117 139.556 18.1127C138.457 17.0137 137.145 16.4617 135.619 16.4617H118.863C117.337 16.4617 116.025 17.0137 114.931 18.1127C113.832 19.2117 113.28 20.5242 113.28 22.0502V38.8002C113.28 40.3315 113.832 41.644 114.931 42.7377C116.025 43.8367 117.337 44.3887 118.863 44.3887H135.619C137.145 44.3887 138.457 43.8367 139.556 42.7377C140.655 41.644 141.207 40.3315 141.207 38.8002ZM146.79 22.0502V38.8002C146.79 40.8523 146.285 42.7221 145.28 44.4148C144.275 46.1075 142.926 47.4565 141.233 48.4617C139.54 49.4669 137.665 49.9721 135.619 49.9721H118.863C116.817 49.9721 114.947 49.4669 113.254 48.4617C111.561 47.4565 110.207 46.1075 109.202 44.4148C108.197 42.7221 107.697 40.8523 107.697 38.8002V22.0502C107.697 19.9981 108.197 18.1283 109.202 16.4356C110.207 14.7429 111.561 13.394 113.254 12.3887C114.947 11.3835 116.817 10.8783 118.863 10.8783H135.619C137.593 10.8783 139.426 11.3887 141.119 12.4148C142.817 13.4408 144.181 14.7898 145.228 16.4617C146.27 18.1387 146.79 19.9981 146.79 22.0502Z" fill="#545454"/>
<path d="M195.992 44.3887H201.576C203.102 44.3887 204.414 43.8367 205.513 42.7377C206.612 41.644 207.159 40.3315 207.159 38.8002V10.8783H212.748V38.8002C212.748 40.7742 212.253 42.6075 211.263 44.3054C210.279 45.9981 208.94 47.3679 207.242 48.4096C205.55 49.4512 203.659 49.9721 201.576 49.9721H195.992C192.638 49.9721 189.847 48.7065 187.612 46.1752C185.378 48.7065 182.586 49.9721 179.237 49.9721H173.654C171.68 49.9721 169.836 49.4773 168.123 48.4929C166.409 47.5033 165.044 46.1648 164.018 44.4721C162.992 42.7794 162.482 40.8887 162.482 38.8002V10.8783H168.065V38.8002C168.065 40.3315 168.617 41.644 169.716 42.7377C170.815 43.8367 172.128 44.3887 173.654 44.3887H179.237C180.763 44.3887 182.076 43.8367 183.175 42.7377C184.274 41.644 184.821 40.3315 184.821 38.8002V10.8783H190.404V38.8002C190.404 40.3315 190.956 41.644 192.055 42.7377C193.154 43.8367 194.466 44.3887 195.992 44.3887Z" fill="#545454"/>
<path d="M234.58 16.4617V27.6335H262.507V33.2169H234.58V44.3887H268.09V49.9721H228.996V10.8783H268.09V16.4617H234.58Z" fill="#545454"/>
<path d="M316.735 27.6335V22.0502C316.735 20.5242 316.183 19.2117 315.084 18.1127C313.99 17.0137 312.678 16.4617 311.146 16.4617H288.808V33.2169H311.146C312.678 33.2169 313.99 32.67 315.084 31.571C316.183 30.4721 316.735 29.1596 316.735 27.6335ZM322.318 49.9721H318.355L307.183 38.8002H288.808V49.9721H283.224V10.8783H311.146C313.12 10.8783 314.954 11.3835 316.651 12.3887C318.344 13.394 319.714 14.7325 320.756 16.4096C321.797 18.0815 322.318 19.9617 322.318 22.0502V27.6335C322.318 30.0137 321.599 32.1856 320.167 34.1387C318.735 36.0919 316.865 37.4617 314.558 38.2429L322.318 46.0085V49.9721Z" fill="#545454"/>
<path d="M109.74 3.35416H143.365" stroke="#545454" stroke-width="4.96479"/>
</svg>
