<svg xmlns="http://www.w3.org/2000/svg" xmlns:xlink="http://www.w3.org/1999/xlink" width="500" zoomAndPan="magnify" viewBox="0 0 375 374.999991" height="500" preserveAspectRatio="xMidYMid meet" version="1.2"><defs/><g id="82e97d84e3"><g style="fill:#545454;fill-opacity:1;"><g transform="translate(63.992227, 200.242664)"><path style="stroke:none" d="M 31.636719 -29.527344 L 16.875 -14.765625 L 31.636719 0 L 25.6875 0 L 13.035156 -12.65625 L 6.328125 -12.65625 L 6.328125 0 L 2.109375 0 L 2.109375 -29.527344 L 6.328125 -29.527344 L 6.328125 -16.875 L 13.035156 -16.875 L 25.6875 -29.527344 Z M 31.636719 -29.527344 "/></g></g><g style="fill:#545454;fill-opacity:1;"><g transform="translate(103.686182, 200.242664)"><path style="stroke:none" d="M 31.636719 -29.527344 L 31.636719 0 L 27.417969 0 L 6.328125 -22.695312 L 6.328125 0 L 2.109375 0 L 2.109375 -29.527344 L 6.328125 -29.527344 L 27.417969 -7.171875 L 27.417969 -29.527344 Z M 31.636719 -29.527344 "/></g></g><g style="fill:#545454;fill-opacity:1;"><g transform="translate(145.489279, 200.242664)"><path style="stroke:none" d="M 26.996094 -8.4375 L 26.996094 -21.089844 C 26.996094 -22.246094 26.582031 -23.234375 25.753906 -24.066406 C 24.921875 -24.894531 23.929688 -25.308594 22.777344 -25.308594 L 10.125 -25.308594 C 8.972656 -25.308594 7.980469 -24.894531 7.148438 -24.066406 C 6.320312 -23.234375 5.90625 -22.246094 5.90625 -21.089844 L 5.90625 -8.4375 C 5.90625 -7.285156 6.320312 -6.292969 7.148438 -5.460938 C 7.980469 -4.632812 8.972656 -4.21875 10.125 -4.21875 L 22.777344 -4.21875 C 23.929688 -4.21875 24.921875 -4.632812 25.753906 -5.460938 C 26.582031 -6.292969 26.996094 -7.285156 26.996094 -8.4375 Z M 31.214844 -21.089844 L 31.214844 -8.4375 C 31.214844 -6.890625 30.835938 -5.476562 30.078125 -4.195312 C 29.316406 -2.917969 28.296875 -1.898438 27.019531 -1.140625 C 25.738281 -0.378906 24.324219 0 22.777344 0 L 10.125 0 C 8.578125 0 7.164062 -0.378906 5.882812 -1.140625 C 4.605469 -1.898438 3.585938 -2.917969 2.828125 -4.195312 C 2.066406 -5.476562 1.6875 -6.890625 1.6875 -8.4375 L 1.6875 -21.089844 C 1.6875 -22.636719 2.066406 -24.050781 2.828125 -25.332031 C 3.585938 -26.609375 4.605469 -27.628906 5.882812 -28.390625 C 7.164062 -29.148438 8.578125 -29.527344 10.125 -29.527344 L 22.777344 -29.527344 C 24.269531 -29.527344 25.652344 -29.140625 26.933594 -28.367188 C 28.214844 -27.59375 29.246094 -26.574219 30.035156 -25.308594 C 30.820312 -24.042969 31.214844 -22.636719 31.214844 -21.089844 Z M 31.214844 -21.089844 "/></g></g><g style="fill:#545454;fill-opacity:1;"><g transform="translate(186.448716, 200.242664)"><path style="stroke:none" d="M 27.417969 -4.21875 L 31.636719 -4.21875 C 32.789062 -4.21875 33.78125 -4.632812 34.609375 -5.460938 C 35.441406 -6.292969 35.855469 -7.285156 35.855469 -8.4375 L 35.855469 -29.527344 L 40.074219 -29.527344 L 40.074219 -8.4375 C 40.074219 -6.945312 39.699219 -5.5625 38.957031 -4.28125 C 38.210938 -3.003906 37.199219 -1.96875 35.917969 -1.179688 C 34.640625 -0.394531 33.210938 0 31.636719 0 L 27.417969 0 C 24.886719 0 22.777344 -0.957031 21.089844 -2.867188 C 19.402344 -0.957031 17.292969 0 14.765625 0 L 10.546875 0 C 9.054688 0 7.664062 -0.371094 6.371094 -1.117188 C 5.074219 -1.863281 4.042969 -2.875 3.269531 -4.15625 C 2.496094 -5.433594 2.109375 -6.863281 2.109375 -8.4375 L 2.109375 -29.527344 L 6.328125 -29.527344 L 6.328125 -8.4375 C 6.328125 -7.285156 6.742188 -6.292969 7.570312 -5.460938 C 8.402344 -4.632812 9.394531 -4.21875 10.546875 -4.21875 L 14.765625 -4.21875 C 15.917969 -4.21875 16.910156 -4.632812 17.738281 -5.460938 C 18.566406 -6.292969 18.980469 -7.285156 18.980469 -8.4375 L 18.980469 -29.527344 L 23.199219 -29.527344 L 23.199219 -8.4375 C 23.199219 -7.285156 23.617188 -6.292969 24.445312 -5.460938 C 25.273438 -4.632812 26.265625 -4.21875 27.417969 -4.21875 Z M 27.417969 -4.21875 "/></g></g><g style="fill:#545454;fill-opacity:1;"><g transform="translate(236.688352, 200.242664)"><path style="stroke:none" d="M 6.328125 -25.308594 L 6.328125 -16.875 L 27.417969 -16.875 L 27.417969 -12.65625 L 6.328125 -12.65625 L 6.328125 -4.21875 L 31.636719 -4.21875 L 31.636719 0 L 2.109375 0 L 2.109375 -29.527344 L 31.636719 -29.527344 L 31.636719 -25.308594 Z M 6.328125 -25.308594 "/></g></g><g style="fill:#545454;fill-opacity:1;"><g transform="translate(277.647789, 200.242664)"><path style="stroke:none" d="M 27.417969 -16.875 L 27.417969 -21.089844 C 27.417969 -22.246094 27.003906 -23.234375 26.175781 -24.066406 C 25.34375 -24.894531 24.351562 -25.308594 23.199219 -25.308594 L 6.328125 -25.308594 L 6.328125 -12.65625 L 23.199219 -12.65625 C 24.351562 -12.65625 25.34375 -13.070312 26.175781 -13.898438 C 27.003906 -14.730469 27.417969 -15.71875 27.417969 -16.875 Z M 31.636719 0 L 28.640625 0 L 20.207031 -8.4375 L 6.328125 -8.4375 L 6.328125 0 L 2.109375 0 L 2.109375 -29.527344 L 23.199219 -29.527344 C 24.691406 -29.527344 26.074219 -29.148438 27.355469 -28.390625 C 28.636719 -27.628906 29.667969 -26.617188 30.457031 -25.351562 C 31.242188 -24.085938 31.636719 -22.667969 31.636719 -21.089844 L 31.636719 -16.875 C 31.636719 -15.074219 31.09375 -13.433594 30.011719 -11.957031 C 28.929688 -10.480469 27.515625 -9.449219 25.773438 -8.859375 L 31.636719 -2.996094 Z M 31.636719 0 "/></g></g><path style="fill:none;stroke-width:5;stroke-linecap:butt;stroke-linejoin:miter;stroke:#545454;stroke-opacity:1;stroke-miterlimit:4;" d="M 0.00223242 2.498888 L 33.86161 2.498888 " transform="matrix(0.75,0,0,0.75,148.720982,163.157084)"/></g></svg>