<svg xmlns="http://www.w3.org/2000/svg" xmlns:xlink="http://www.w3.org/1999/xlink" width="500" zoomAndPan="magnify" viewBox="0 0 375 374.999991" height="500" preserveAspectRatio="xMidYMid meet" version="1.2"><defs><clipPath id="168f8b4988"><path d="M 119.316406 121.007812 L 255.554688 121.007812 L 255.554688 214 L 119.316406 214 Z M 119.316406 121.007812 "/></clipPath></defs><g id="50eb8a2594"><g style="fill:#020202;fill-opacity:1;"><g transform="translate(95.719063, 247.365577)"><path style="stroke:none" d="M 6.359375 -0.578125 L 6.203125 -1.015625 L 5.96875 -1.5 L 3.875 -7.40625 L 3.640625 -7.828125 L 2.90625 -9.765625 L 2.75 -10.34375 L 1.6875 -13.25 L 1.453125 -13.6875 L 0.359375 -16.65625 L 0.234375 -17.359375 L 0.34375 -17.953125 L 0.890625 -18.109375 L 1.421875 -18.140625 L 1.890625 -18.21875 L 2.359375 -18.109375 L 4.4375 -18.078125 L 4.9375 -17.84375 L 5.40625 -17.4375 L 5.609375 -16.921875 L 5.71875 -16.390625 L 6.03125 -15.375 L 6.234375 -14.9375 L 7.90625 -9.28125 L 8 -8.65625 L 8.21875 -8.671875 L 8.59375 -9.671875 L 8.703125 -10.21875 L 8.96875 -10.609375 L 9.90625 -13.609375 L 10.296875 -14.546875 L 11.140625 -17.125 L 11.59375 -17.640625 L 12.109375 -17.90625 L 12.6875 -17.90625 L 13.21875 -17.59375 L 13.59375 -17.078125 L 13.796875 -16.609375 L 14 -16.15625 L 14.3125 -15.125 L 14.53125 -14.625 L 14.78125 -13.640625 L 15.90625 -10.703125 L 16.03125 -10.1875 L 16.546875 -8.703125 L 16.8125 -8.671875 L 16.96875 -9.171875 L 17.15625 -10.265625 L 17.484375 -11.359375 L 17.59375 -11.875 L 19.015625 -16.453125 L 19.25 -16.890625 L 19.390625 -17.390625 L 19.828125 -17.921875 L 20.375 -18.1875 L 20.859375 -18.109375 L 21.40625 -18.15625 L 22.453125 -18.109375 L 23.359375 -18.15625 L 23.875 -18.078125 L 24.40625 -17.953125 L 24.5625 -17.328125 L 24.0625 -15.75 L 23.796875 -15.28125 L 23.671875 -14.703125 L 22.015625 -10.296875 L 21.90625 -9.84375 L 21.671875 -9.375 L 21.46875 -8.65625 L 20.609375 -6.4375 L 20.375 -6 L 18.8125 -1.484375 L 18.578125 -1.015625 L 18.421875 -0.515625 L 18.03125 -0.046875 L 17.40625 0.15625 L 16.96875 0.234375 L 16.46875 0.265625 L 15.875 -0.046875 L 15.375 -0.59375 L 15.234375 -1.09375 L 14.84375 -1.953125 L 13.359375 -5.953125 L 12.921875 -6.828125 L 12.765625 -7.375 L 12.5 -7.828125 L 12.234375 -7.90625 L 11.90625 -6.890625 L 11.4375 -5.890625 L 11.28125 -5.359375 L 10.46875 -3.4375 L 10.34375 -3.015625 L 10.109375 -2.46875 L 9.984375 -2.03125 L 9.71875 -1.5625 L 9.5625 -0.984375 L 9.328125 -0.546875 L 8.90625 0 L 8.34375 0.203125 L 7.359375 0.234375 L 6.78125 -0.109375 Z M 6.359375 -0.578125 "/></g></g><g style="fill:#020202;fill-opacity:1;"><g transform="translate(124.352956, 247.365577)"><path style="stroke:none" d="M 10.421875 0.34375 L 8.859375 0.265625 L 6.65625 -0.390625 L 6.15625 -0.59375 L 4.390625 -1.53125 L 4.046875 -1.921875 L 3.328125 -2.625 L 2.109375 -4.28125 L 1.84375 -4.75 L 1.6875 -5.296875 L 1.296875 -6.1875 L 1.015625 -7.828125 L 1.125 -10.828125 L 1.328125 -11.953125 L 1.8125 -13.375 L 2.046875 -13.828125 L 2.9375 -15.125 L 3.640625 -15.90625 L 4.46875 -16.46875 L 4.828125 -16.78125 L 6.15625 -17.625 L 7.140625 -17.875 L 7.609375 -18.078125 L 8.140625 -18.234375 L 8.65625 -18.34375 L 10.46875 -18.453125 L 11.6875 -18.421875 L 15.09375 -17.359375 L 16.421875 -16.53125 L 17.546875 -15.515625 L 17.875 -15.046875 L 18.1875 -14.734375 L 18.53125 -14.296875 L 18.703125 -13.828125 L 19.171875 -12.96875 L 19.3125 -12.375 L 19.515625 -11.828125 L 19.71875 -10.859375 L 19.859375 -9.0625 L 19.71875 -7.25 L 19.625 -6.671875 L 19.46875 -6.265625 L 19.390625 -5.75 L 19.203125 -5.25 L 18.1875 -3.453125 L 17.84375 -2.984375 L 16.03125 -1.25 L 13.71875 -0.203125 L 12.734375 0.109375 Z M 9.6875 -4.234375 L 11.203125 -4.28125 L 11.6875 -4.421875 L 12.15625 -4.46875 L 12.578125 -4.703125 L 13.046875 -4.90625 L 13.84375 -5.53125 L 14.15625 -6 L 14.390625 -6.390625 L 14.6875 -6.78125 L 14.921875 -7.84375 L 15.078125 -9.140625 L 14.96875 -10.265625 L 14.78125 -10.734375 L 14.625 -11.25 L 14.421875 -11.71875 L 13.828125 -12.609375 L 13.015625 -13.203125 L 11.640625 -13.796875 L 10.390625 -13.875 L 9.203125 -13.765625 L 8.65625 -13.640625 L 8.1875 -13.40625 L 7.4375 -12.890625 L 7.046875 -12.546875 L 6.703125 -12.140625 L 6.46875 -11.6875 L 6.15625 -11.328125 L 6 -10.859375 L 5.828125 -9.90625 L 5.796875 -9.125 L 5.921875 -7.828125 L 6.421875 -6.359375 L 6.75 -6 L 7.015625 -5.640625 L 7.828125 -4.9375 L 8.703125 -4.46875 L 9.171875 -4.421875 Z M 9.6875 -4.234375 "/></g></g><g style="fill:#020202;fill-opacity:1;"><g transform="translate(149.037552, 247.365577)"><path style="stroke:none" d="M 6.359375 -0.578125 L 6.203125 -1.015625 L 5.96875 -1.5 L 3.875 -7.40625 L 3.640625 -7.828125 L 2.90625 -9.765625 L 2.75 -10.34375 L 1.6875 -13.25 L 1.453125 -13.6875 L 0.359375 -16.65625 L 0.234375 -17.359375 L 0.34375 -17.953125 L 0.890625 -18.109375 L 1.421875 -18.140625 L 1.890625 -18.21875 L 2.359375 -18.109375 L 4.4375 -18.078125 L 4.9375 -17.84375 L 5.40625 -17.4375 L 5.609375 -16.921875 L 5.71875 -16.390625 L 6.03125 -15.375 L 6.234375 -14.9375 L 7.90625 -9.28125 L 8 -8.65625 L 8.21875 -8.671875 L 8.59375 -9.671875 L 8.703125 -10.21875 L 8.96875 -10.609375 L 9.90625 -13.609375 L 10.296875 -14.546875 L 11.140625 -17.125 L 11.59375 -17.640625 L 12.109375 -17.90625 L 12.6875 -17.90625 L 13.21875 -17.59375 L 13.59375 -17.078125 L 13.796875 -16.609375 L 14 -16.15625 L 14.3125 -15.125 L 14.53125 -14.625 L 14.78125 -13.640625 L 15.90625 -10.703125 L 16.03125 -10.1875 L 16.546875 -8.703125 L 16.8125 -8.671875 L 16.96875 -9.171875 L 17.15625 -10.265625 L 17.484375 -11.359375 L 17.59375 -11.875 L 19.015625 -16.453125 L 19.25 -16.890625 L 19.390625 -17.390625 L 19.828125 -17.921875 L 20.375 -18.1875 L 20.859375 -18.109375 L 21.40625 -18.15625 L 22.453125 -18.109375 L 23.359375 -18.15625 L 23.875 -18.078125 L 24.40625 -17.953125 L 24.5625 -17.328125 L 24.0625 -15.75 L 23.796875 -15.28125 L 23.671875 -14.703125 L 22.015625 -10.296875 L 21.90625 -9.84375 L 21.671875 -9.375 L 21.46875 -8.65625 L 20.609375 -6.4375 L 20.375 -6 L 18.8125 -1.484375 L 18.578125 -1.015625 L 18.421875 -0.515625 L 18.03125 -0.046875 L 17.40625 0.15625 L 16.96875 0.234375 L 16.46875 0.265625 L 15.875 -0.046875 L 15.375 -0.59375 L 15.234375 -1.09375 L 14.84375 -1.953125 L 13.359375 -5.953125 L 12.921875 -6.828125 L 12.765625 -7.375 L 12.5 -7.828125 L 12.234375 -7.90625 L 11.90625 -6.890625 L 11.4375 -5.890625 L 11.28125 -5.359375 L 10.46875 -3.4375 L 10.34375 -3.015625 L 10.109375 -2.46875 L 9.984375 -2.03125 L 9.71875 -1.5625 L 9.5625 -0.984375 L 9.328125 -0.546875 L 8.90625 0 L 8.34375 0.203125 L 7.359375 0.234375 L 6.78125 -0.109375 Z M 6.359375 -0.578125 "/></g></g><g style="fill:#020202;fill-opacity:1;"><g transform="translate(177.671445, 247.365577)"><path style="stroke:none" d="M 15.328125 -0.4375 L 14.9375 -0.78125 L 14.265625 -1.53125 L 10.234375 -5.53125 L 9.796875 -5.828125 L 9.453125 -6.203125 L 7.609375 -7.984375 L 7.28125 -8.421875 L 6.9375 -8.546875 L 6.75 -8.109375 L 6.703125 -7.59375 L 6.671875 -1.015625 L 6.421875 -0.203125 L 5.890625 0.046875 L 5.359375 0.078125 L 4.34375 0 L 3.765625 0.046875 L 2.703125 0 L 2.15625 -0.1875 L 1.921875 -0.671875 L 1.875 -2.859375 L 1.921875 -3.359375 L 1.875 -7.609375 L 1.953125 -8.0625 L 1.890625 -9.125 L 1.921875 -9.5625 L 1.921875 -17.4375 L 2.15625 -17.921875 L 2.75 -18.1875 L 3.53125 -18 L 4.125 -17.6875 L 4.515625 -17.390625 L 9.640625 -12.21875 L 10.375 -11.640625 L 12.21875 -9.796875 L 12.609375 -9.609375 L 12.765625 -10.0625 L 12.8125 -14.703125 L 12.765625 -15.28125 L 12.84375 -16.375 L 12.765625 -16.78125 L 12.78125 -17.328125 L 13.0625 -17.875 L 13.5625 -18.15625 L 16.78125 -18.1875 L 17.3125 -17.90625 L 17.5625 -17.390625 L 17.640625 -13.765625 L 17.5625 -13.140625 L 17.5625 -10.578125 L 17.640625 -10.140625 L 17.59375 -0.65625 L 17.328125 -0.125 L 16.765625 0.046875 L 16.03125 -0.03125 Z M 15.328125 -0.4375 "/></g></g><g style="fill:#020202;fill-opacity:1;"><g transform="translate(201.108897, 247.365577)"><path style="stroke:none" d="M 9.046875 0.078125 L 8.515625 0.03125 L 8 0.078125 L 7.40625 0.046875 L 6.90625 -0.046875 L 5.84375 0.03125 L 5.375 0 L 4.8125 0.046875 L 2.9375 0.03125 L 2.15625 -0.3125 L 1.953125 -1.015625 L 1.890625 -1.578125 L 1.96875 -3.375 L 1.890625 -3.890625 L 1.953125 -4.390625 L 1.96875 -8.59375 L 1.890625 -9.0625 L 1.921875 -11.203125 L 1.96875 -11.6875 L 1.890625 -12.234375 L 1.953125 -14.78125 L 1.875 -15.359375 L 1.953125 -16.421875 L 1.890625 -17.40625 L 2.1875 -17.953125 L 2.734375 -18.15625 L 3.25 -18.140625 L 3.765625 -18.1875 L 4.234375 -18.140625 L 4.734375 -18.234375 L 5.25 -18.15625 L 7.375 -18.21875 L 7.90625 -18.15625 L 8.34375 -18.1875 L 8.859375 -18.140625 L 9.4375 -18.1875 L 11.53125 -18.21875 L 12 -18.109375 L 12.546875 -18.109375 L 13.0625 -17.90625 L 13.296875 -17.40625 L 13.359375 -15.84375 L 13.328125 -15.328125 L 13.359375 -14.8125 L 13.09375 -14.34375 L 12.546875 -14.03125 L 12.0625 -14 L 8.34375 -14.0625 L 7.84375 -13.953125 L 7.359375 -13.984375 L 6.78125 -13.765625 L 6.546875 -13.28125 L 6.546875 -12.46875 L 6.75 -11.671875 L 7.296875 -11.4375 L 8.8125 -11.484375 L 9.90625 -11.40625 L 10.453125 -11.453125 L 11.984375 -11.453125 L 12.578125 -11.125 L 12.84375 -10.390625 L 12.765625 -8.0625 L 12.578125 -7.53125 L 12.0625 -7.328125 L 11.453125 -7.359375 L 10.9375 -7.296875 L 9.875 -7.328125 L 8.890625 -7.28125 L 8.0625 -7.359375 L 7.28125 -7.328125 L 6.8125 -7.046875 L 6.578125 -6.5 L 6.578125 -4.859375 L 6.78125 -4.390625 L 7.328125 -4.125 L 7.90625 -4.1875 L 8.390625 -4.109375 L 8.96875 -4.125 L 9.484375 -4.078125 L 10.34375 -4.1875 L 11.671875 -4.15625 L 12.15625 -4.078125 L 12.765625 -4.125 L 13.296875 -3.890625 L 13.59375 -3.375 L 13.59375 -0.75 L 13.296875 -0.203125 L 12.765625 0.03125 Z M 9.046875 0.078125 "/></g></g><g style="fill:#020202;fill-opacity:1;"><g transform="translate(219.843568, 247.365577)"><path style="stroke:none" d="M 0.34375 -0.65625 L 0.578125 -1.25 L 0.828125 -1.734375 L 1.125 -2.109375 L 1.375 -2.59375 L 1.953125 -3.375 L 2.78125 -4.75 L 3.09375 -5.140625 L 3.609375 -6.078125 L 3.953125 -6.421875 L 4.203125 -6.890625 L 4.46875 -7.203125 L 4.984375 -8.140625 L 5.59375 -8.984375 L 5.6875 -9.5625 L 5.53125 -10.265625 L 5.296875 -10.65625 L 4.9375 -11.125 L 4.421875 -12 L 4.109375 -12.390625 L 3.8125 -12.890625 L 3.515625 -13.28125 L 2.96875 -14.21875 L 2.234375 -15.234375 L 1.8125 -15.984375 L 1.171875 -16.84375 L 0.90625 -17.40625 L 0.96875 -17.984375 L 1.5625 -18.140625 L 2.34375 -18.109375 L 3.140625 -18.21875 L 3.734375 -18.140625 L 4.265625 -18.140625 L 4.828125 -18.21875 L 5.453125 -17.921875 L 6 -17.484375 L 7.328125 -15.359375 L 7.515625 -14.890625 L 7.796875 -14.546875 L 8.0625 -14.03125 L 8.3125 -13.609375 L 8.671875 -13.6875 L 9.84375 -15.328125 L 10.03125 -15.84375 L 10.890625 -17.046875 L 11.09375 -17.546875 L 11.6875 -17.921875 L 12.3125 -18.15625 L 12.8125 -18.21875 L 14.6875 -18.140625 L 15.515625 -18.1875 L 16.078125 -18 L 16.21875 -17.46875 L 14.703125 -15.125 L 14.46875 -14.65625 L 12.625 -12.03125 L 12.375 -11.53125 L 11.84375 -10.734375 L 11.484375 -10.265625 L 11.359375 -9.640625 L 11.515625 -8.984375 L 11.828125 -8.59375 L 13.015625 -6.59375 L 13.796875 -5.59375 L 14.296875 -4.671875 L 14.625 -4.203125 L 14.8125 -3.875 L 15.71875 -2.625 L 15.953125 -2.1875 L 16.53125 -1.34375 L 16.84375 -0.703125 L 16.765625 -0.109375 L 16.234375 0.03125 L 15.71875 -0.046875 L 12.734375 0.109375 L 12.109375 -0.1875 L 11.609375 -0.671875 L 9.015625 -5.046875 L 8.703125 -5.4375 L 8.390625 -5.453125 L 8.109375 -5.0625 L 7.609375 -4.078125 L 7.28125 -3.734375 L 7.046875 -3.25 L 6.28125 -1.96875 L 6.046875 -1.453125 L 5.765625 -1.0625 L 5.5625 -0.65625 L 4.984375 -0.234375 L 4.390625 -0.046875 L 3.609375 0.03125 L 0.890625 0.046875 L 0.421875 -0.125 Z M 0.34375 -0.65625 "/></g></g><g style="fill:#020202;fill-opacity:1;"><g transform="translate(240.916641, 247.365577)"><path style="stroke:none" d="M 8.9375 0.34375 L 8.109375 0.28125 L 7.59375 0.28125 L 6.578125 0.078125 L 5.59375 -0.359375 L 5.203125 -0.59375 L 4.671875 -0.828125 L 3.84375 -1.375 L 3.453125 -1.71875 L 3.140625 -2.078125 L 2.546875 -3.015625 L 2.125 -3.890625 L 1.875 -4.96875 L 1.71875 -7.046875 L 1.796875 -11.21875 L 1.734375 -11.71875 L 1.8125 -12.234375 L 1.734375 -15.875 L 1.796875 -16.296875 L 1.796875 -16.921875 L 1.734375 -17.4375 L 2.078125 -17.921875 L 2.625 -18.140625 L 3.171875 -18.21875 L 4.28125 -18.109375 L 4.8125 -18.1875 L 5.296875 -18.1875 L 5.84375 -17.953125 L 6.15625 -17.390625 L 6.203125 -16.625 L 6.15625 -15.796875 L 6.203125 -15.40625 L 6.125 -7.046875 L 6.28125 -5.53125 L 6.4375 -5.046875 L 6.75 -4.625 L 7.171875 -4.3125 L 7.609375 -4.046875 L 8.21875 -3.921875 L 9.765625 -3.921875 L 10.671875 -4.265625 L 11.125 -4.578125 L 11.40625 -5.09375 L 11.5625 -5.484375 L 11.75 -7.09375 L 11.6875 -17.328125 L 11.984375 -17.90625 L 12.53125 -18.15625 L 13.609375 -18.078125 L 15.25 -18.140625 L 15.828125 -17.953125 L 16.15625 -17.40625 L 16.078125 -16.890625 L 16.078125 -14.734375 L 16.140625 -14.3125 L 16.078125 -13.75 L 16.140625 -13.25 L 16.140625 -6.234375 L 16 -4.984375 L 15.765625 -3.890625 L 15.515625 -3.453125 L 15.359375 -2.9375 L 14.765625 -2.03125 L 14.03125 -1.296875 L 13.171875 -0.734375 L 12.234375 -0.234375 L 10.21875 0.28125 L 9.71875 0.265625 Z M 8.9375 0.34375 "/></g></g><g style="fill:#020202;fill-opacity:1;"><g transform="translate(262.69122, 247.365577)"><path style="stroke:none" d="M 6.984375 0.234375 L 5.921875 0.046875 L 4.90625 -0.3125 L 4.390625 -0.46875 L 3.890625 -0.703125 L 3.53125 -1.09375 L 2.625 -1.65625 L 2.28125 -2.046875 L 1.921875 -2.390625 L 1.421875 -3.359375 L 1.265625 -3.8125 L 1.171875 -4.34375 L 1.09375 -4.859375 L 1.296875 -5.40625 L 1.765625 -5.609375 L 3.765625 -5.71875 L 4.265625 -5.640625 L 4.734375 -5.6875 L 5.25 -5.484375 L 6.109375 -4.546875 L 6.546875 -4.265625 L 6.984375 -4.03125 L 8.3125 -3.890625 L 8.78125 -3.96875 L 9.59375 -4.03125 L 10.46875 -4.421875 L 10.8125 -4.8125 L 11.015625 -5.453125 L 10.859375 -6.109375 L 10.53125 -6.421875 L 9.59375 -6.859375 L 5.515625 -7.328125 L 4.578125 -7.640625 L 2.8125 -8.59375 L 1.84375 -9.796875 L 1.421875 -10.703125 L 1.25 -11.75 L 1.21875 -12.546875 L 1.296875 -13.828125 L 1.765625 -15.25 L 2.671875 -16.46875 L 3.921875 -17.328125 L 4.8125 -17.84375 L 5.796875 -18.15625 L 6.265625 -18.234375 L 6.78125 -18.265625 L 7.359375 -18.421875 L 9.359375 -18.375 L 10.375 -18.15625 L 11.828125 -17.671875 L 13.53125 -16.46875 L 14.109375 -15.6875 L 14.84375 -14.34375 L 14.890625 -13.84375 L 15 -13.359375 L 14.78125 -12.921875 L 14.296875 -12.546875 L 13.828125 -12.609375 L 13.296875 -12.609375 L 12.609375 -12.65625 L 11.375 -12.546875 L 10.8125 -12.890625 L 10.421875 -13.40625 L 9.984375 -13.765625 L 9.515625 -14.078125 L 9.046875 -14.21875 L 8.21875 -14.3125 L 7.375 -14.296875 L 6.90625 -14.1875 L 6.5 -13.953125 L 6.109375 -13.671875 L 5.796875 -13.328125 L 5.671875 -12.625 L 5.765625 -11.84375 L 6.15625 -11.484375 L 7.125 -11.015625 L 8.5 -10.734375 L 9.25 -10.734375 L 9.796875 -10.625 L 10.3125 -10.609375 L 10.828125 -10.53125 L 12.859375 -9.90625 L 13.328125 -9.609375 L 13.75 -9.40625 L 14.21875 -8.984375 L 14.890625 -8.21875 L 15.171875 -7.796875 L 15.5625 -6.28125 L 15.609375 -5.453125 L 15.453125 -4.15625 L 15.3125 -3.71875 L 15.15625 -3.25 L 14.859375 -2.671875 L 14.609375 -2.3125 L 13.84375 -1.53125 L 12.078125 -0.46875 L 11.59375 -0.234375 L 11.125 -0.1875 L 10.609375 0.03125 L 10.078125 0.109375 L 9.5625 0.234375 L 9.046875 0.28125 Z M 6.984375 0.234375 "/></g></g><g clip-rule="nonzero" clip-path="url(#168f8b4988)"><path style=" stroke:none;fill-rule:nonzero;fill:#000000;fill-opacity:1;" d="M 207.585938 202.425781 L 201.671875 207.101562 C 186.710938 218.925781 164.714844 213.949219 156.324219 196.777344 L 119.316406 121.121094 L 134.550781 121.121094 C 146.203125 121.121094 156.835938 127.742188 161.941406 138.269531 L 186.34375 188.578125 C 188.121094 192.246094 190.71875 195.4375 193.980469 197.859375 C 197.257812 200.292969 201.75 202.375 207.414062 202.214844 C 206.101562 200.550781 204.941406 198.777344 203.96875 196.78125 L 166.960938 121.121094 L 182.195312 121.121094 C 193.847656 121.121094 204.480469 127.742188 209.582031 138.269531 L 233.988281 188.578125 C 235.761719 192.246094 238.363281 195.4375 241.625 197.859375 C 244.988281 200.359375 249.640625 202.492188 255.527344 202.195312 L 249.3125 207.101562 C 236.171875 217.496094 217.59375 214.863281 207.585938 202.425781 Z M 238.84375 153.234375 L 255.542969 121.011719 L 213.824219 121.023438 L 229.925781 153.175781 C 231.761719 156.84375 236.957031 156.878906 238.84375 153.234375 Z M 238.84375 153.234375 "/></g></g></svg>