<svg width="245" height="170" viewBox="0 0 245 170" fill="none" xmlns="http://www.w3.org/2000/svg">
<path d="M9.10458 168.05L8.89625 167.467L8.58375 166.821L5.79208 158.946L5.47958 158.383L4.50041 155.8L4.29208 155.029L2.87541 151.154L2.56291 150.571L1.10458 146.612L0.937912 145.675L1.08375 144.883L1.81291 144.675L2.52125 144.633L3.14625 144.529L3.77125 144.675L6.54208 144.717L7.20875 145.029L7.83375 145.571L8.10458 146.258L8.25041 146.967L8.66708 148.321L8.93791 148.904L11.1671 156.446L11.2921 157.279L11.5837 157.258L12.0837 155.925L12.2296 155.196L12.5837 154.675L13.8337 150.675L14.3546 149.425L15.4796 145.987L16.0837 145.3L16.7712 144.946H17.5421L18.2504 145.362L18.7504 146.05L19.0212 146.675L19.2921 147.279L19.7087 148.654L20.0004 149.321L20.3337 150.633L21.8337 154.55L22.0004 155.237L22.6879 157.217L23.0421 157.258L23.2504 156.592L23.5004 155.133L23.9379 153.675L24.0837 152.987L25.9796 146.883L26.2921 146.3L26.4796 145.633L27.0629 144.925L27.7921 144.571L28.4379 144.675L29.1671 144.612L30.5629 144.675L31.7712 144.612L32.4587 144.717L33.1671 144.883L33.3754 145.717L32.7087 147.821L32.3546 148.446L32.1879 149.217L29.9796 155.092L29.8337 155.696L29.5212 156.321L29.2504 157.279L28.1046 160.237L27.7921 160.821L25.7087 166.842L25.3962 167.467L25.1879 168.133L24.6671 168.758L23.8337 169.029L23.2504 169.133L22.5837 169.175L21.7921 168.758L21.1254 168.029L20.9379 167.362L20.4171 166.217L18.4379 160.883L17.8546 159.717L17.6462 158.987L17.2921 158.383L16.9379 158.279L16.5004 159.633L15.8754 160.967L15.6671 161.675L14.5837 164.237L14.4171 164.8L14.1046 165.529L13.9379 166.112L13.5837 166.737L13.3754 167.508L13.0629 168.092L12.5004 168.821L11.7504 169.092L10.4379 169.133L9.66708 168.675L9.10458 168.05Z" fill="#020202"/>
<path d="M52.6998 169.279L50.6164 169.175L47.6789 168.3L47.0123 168.029L44.6581 166.779L44.1998 166.258L43.2414 165.321L41.6164 163.112L41.2623 162.487L41.0539 161.758L40.5331 160.571L40.1581 158.383L40.3039 154.383L40.5748 152.883L41.2206 150.987L41.5331 150.383L42.7206 148.654L43.6581 147.612L44.7623 146.862L45.2414 146.446L47.0123 145.321L48.3248 144.987L48.9498 144.717L49.6581 144.508L50.3456 144.362L52.7623 144.217L54.3873 144.258L58.9289 145.675L60.6998 146.779L62.1998 148.133L62.6373 148.758L63.0539 149.175L63.5123 149.758L63.7414 150.383L64.3664 151.529L64.5539 152.321L64.8248 153.05L65.0956 154.342L65.2831 156.737L65.0956 159.154L64.9706 159.925L64.7623 160.467L64.6581 161.154L64.4081 161.821L63.0539 164.217L62.5956 164.842L60.1789 167.154L57.0956 168.55L55.7831 168.967L52.6998 169.279ZM51.7206 163.175L53.7414 163.112L54.3873 162.925L55.0123 162.862L55.5748 162.55L56.1998 162.279L57.2623 161.446L57.6789 160.821L57.9914 160.3L58.3873 159.779L58.6998 158.362L58.9081 156.633L58.7623 155.133L58.5123 154.508L58.3039 153.821L58.0331 153.196L57.2414 152.008L56.1581 151.217L54.3248 150.425L52.6581 150.321L51.0748 150.467L50.3456 150.633L49.7206 150.946L48.7206 151.633L48.1998 152.092L47.7414 152.633L47.4289 153.237L47.0123 153.717L46.8039 154.342L46.5748 155.612L46.5331 156.654L46.6998 158.383L47.3664 160.342L47.8039 160.821L48.1581 161.3L49.2414 162.237L50.4081 162.862L51.0331 162.925L51.7206 163.175Z" fill="#020202"/>
<path d="M80.1959 168.05L79.9876 167.467L79.6751 166.821L76.8834 158.946L76.5709 158.383L75.5917 155.8L75.3834 155.029L73.9667 151.154L73.6542 150.571L72.1959 146.612L72.0292 145.675L72.1751 144.883L72.9042 144.675L73.6126 144.633L74.2376 144.529L74.8626 144.675L77.6334 144.717L78.3001 145.029L78.9251 145.571L79.1959 146.258L79.3417 146.967L79.7584 148.321L80.0292 148.904L82.2584 156.446L82.3834 157.279L82.6751 157.258L83.1751 155.925L83.3209 155.196L83.6751 154.675L84.9251 150.675L85.4459 149.425L86.5709 145.987L87.1751 145.3L87.8626 144.946H88.6334L89.3417 145.362L89.8417 146.05L90.1126 146.675L90.3834 147.279L90.8001 148.654L91.0917 149.321L91.4251 150.633L92.9251 154.55L93.0917 155.237L93.7792 157.217L94.1334 157.258L94.3417 156.592L94.5917 155.133L95.0292 153.675L95.1751 152.987L97.0709 146.883L97.3834 146.3L97.5709 145.633L98.1542 144.925L98.8834 144.571L99.5292 144.675L100.258 144.612L101.654 144.675L102.863 144.612L103.55 144.717L104.258 144.883L104.467 145.717L103.8 147.821L103.446 148.446L103.279 149.217L101.071 155.092L100.925 155.696L100.613 156.321L100.342 157.279L99.1959 160.237L98.8834 160.821L96.8001 166.842L96.4876 167.467L96.2792 168.133L95.7584 168.758L94.9251 169.029L94.3417 169.133L93.6751 169.175L92.8834 168.758L92.2167 168.029L92.0292 167.362L91.5084 166.217L89.5292 160.883L88.9459 159.717L88.7376 158.987L88.3834 158.383L88.0292 158.279L87.5917 159.633L86.9667 160.967L86.7584 161.675L85.6751 164.237L85.5084 164.8L85.1959 165.529L85.0292 166.112L84.6751 166.737L84.4667 167.508L84.1542 168.092L83.5917 168.821L82.8417 169.092L81.5292 169.133L80.7584 168.675L80.1959 168.05Z" fill="#020202"/>
<path d="M130.333 168.237L129.812 167.779L128.916 166.779L123.541 161.446L122.958 161.05L122.499 160.55L120.041 158.175L119.604 157.592L119.145 157.425L118.895 158.008L118.833 158.696L118.791 167.467L118.458 168.55L117.749 168.883L117.041 168.925L115.687 168.821L114.916 168.883L113.499 168.821L112.77 168.571L112.458 167.925L112.395 165.008L112.458 164.342L112.395 158.675L112.499 158.071L112.416 156.654L112.458 156.071V145.571L112.77 144.925L113.562 144.571L114.604 144.821L115.395 145.237L115.916 145.633L122.749 152.529L123.729 153.3L126.187 155.758L126.708 156.008L126.916 155.404L126.979 149.217L126.916 148.446L127.02 146.987L126.916 146.446L126.937 145.717L127.312 144.987L127.979 144.612L132.27 144.571L132.979 144.946L133.312 145.633L133.416 150.467L133.312 151.3V154.717L133.416 155.3L133.354 167.946L132.999 168.654L132.249 168.883L131.27 168.779L130.333 168.237Z" fill="#020202"/>
<path d="M153.208 168.925L152.499 168.862L151.812 168.925L151.02 168.883L150.354 168.758L148.937 168.862L148.312 168.821L147.562 168.883L145.062 168.862L144.02 168.404L143.749 167.467L143.666 166.717L143.77 164.321L143.666 163.633L143.749 162.967L143.77 157.362L143.666 156.737L143.708 153.883L143.77 153.237L143.666 152.508L143.749 149.112L143.645 148.342L143.749 146.925L143.666 145.612L144.062 144.883L144.791 144.612L145.479 144.633L146.166 144.571L146.791 144.633L147.458 144.508L148.145 144.612L150.979 144.529L151.687 144.612L152.27 144.571L152.958 144.633L153.729 144.571L156.52 144.529L157.145 144.675H157.874L158.562 144.946L158.874 145.612L158.958 147.696L158.916 148.383L158.958 149.071L158.604 149.696L157.874 150.112L157.229 150.154L152.27 150.071L151.604 150.217L150.958 150.175L150.187 150.467L149.874 151.112V152.196L150.145 153.258L150.874 153.571L152.895 153.508L154.354 153.612L155.083 153.55H157.124L157.916 153.987L158.27 154.967L158.166 158.071L157.916 158.779L157.229 159.05L156.416 159.008L155.729 159.092L154.312 159.05L152.999 159.112L151.895 159.008L150.854 159.05L150.229 159.425L149.916 160.154V162.342L150.187 162.967L150.916 163.321L151.687 163.237L152.333 163.342L153.104 163.321L153.791 163.383L154.937 163.237L156.708 163.279L157.354 163.383L158.166 163.321L158.874 163.633L159.27 164.321V167.821L158.874 168.55L158.166 168.862L153.208 168.925Z" fill="#020202"/>
<path d="M166.583 167.946L166.896 167.154L167.229 166.508L167.625 166.008L167.958 165.362L168.729 164.321L169.833 162.487L170.25 161.967L170.937 160.717L171.396 160.258L171.729 159.633L172.083 159.217L172.771 157.967L173.583 156.842L173.708 156.071L173.5 155.133L173.187 154.612L172.708 153.987L172.021 152.821L171.604 152.3L171.208 151.633L170.812 151.112L170.083 149.862L169.104 148.508L168.541 147.508L167.687 146.362L167.333 145.612L167.416 144.842L168.208 144.633L169.25 144.675L170.312 144.529L171.104 144.633H171.812L172.562 144.529L173.396 144.925L174.125 145.508L175.896 148.342L176.146 148.967L176.521 149.425L176.875 150.112L177.208 150.675L177.687 150.571L179.25 148.383L179.5 147.696L180.646 146.092L180.916 145.425L181.708 144.925L182.541 144.612L183.208 144.529L185.708 144.633L186.812 144.571L187.562 144.821L187.75 145.529L185.729 148.654L185.416 149.279L182.958 152.779L182.625 153.446L181.916 154.508L181.437 155.133L181.271 155.967L181.479 156.842L181.896 157.362L183.479 160.029L184.521 161.362L185.187 162.592L185.625 163.217L185.875 163.654L187.083 165.321L187.396 165.904L188.166 167.029L188.583 167.883L188.479 168.675L187.771 168.862L187.083 168.758L183.104 168.967L182.271 168.571L181.604 167.925L178.146 162.092L177.729 161.571L177.312 161.55L176.937 162.071L176.271 163.383L175.833 163.842L175.521 164.487L174.5 166.196L174.187 166.883L173.812 167.404L173.541 167.946L172.771 168.508L171.979 168.758L170.937 168.862L167.312 168.883L166.687 168.654L166.583 167.946Z" fill="#020202"/>
<path d="M206.139 169.279L205.035 169.196H204.347L202.993 168.925L201.681 168.342L201.16 168.029L200.451 167.717L199.347 166.987L198.826 166.529L198.41 166.05L197.618 164.8L197.056 163.633L196.722 162.196L196.514 159.425L196.618 153.862L196.535 153.196L196.639 152.508L196.535 147.654L196.618 147.092V146.258L196.535 145.571L196.993 144.925L197.722 144.633L198.451 144.529L199.931 144.675L200.639 144.571H201.285L202.014 144.883L202.431 145.633L202.493 146.654L202.431 147.758L202.493 148.279L202.389 159.425L202.597 161.446L202.806 162.092L203.222 162.654L203.785 163.071L204.368 163.425L205.181 163.592H207.243L208.451 163.133L209.056 162.717L209.431 162.029L209.639 161.508L209.889 159.362L209.806 145.717L210.201 144.946L210.931 144.612L212.368 144.717L214.556 144.633L215.326 144.883L215.764 145.612L215.66 146.3V149.175L215.743 149.737L215.66 150.487L215.743 151.154V160.508L215.556 162.175L215.243 163.633L214.91 164.217L214.701 164.904L213.91 166.112L212.931 167.092L211.785 167.842L210.535 168.508L207.847 169.196L207.181 169.175L206.139 169.279Z" fill="#020202"/>
<path d="M232.567 169.133L231.151 168.883L229.797 168.404L229.109 168.196L228.442 167.883L227.963 167.362L226.755 166.612L226.297 166.092L225.817 165.633L225.151 164.342L224.942 163.737L224.817 163.029L224.713 162.342L224.984 161.612L225.609 161.342L228.276 161.196L228.942 161.3L229.567 161.237L230.255 161.508L231.401 162.758L231.984 163.133L232.567 163.446L234.338 163.633L234.963 163.529L236.047 163.446L237.213 162.925L237.672 162.404L237.942 161.55L237.734 160.675L237.297 160.258L236.047 159.675L230.609 159.05L229.359 158.633L227.005 157.362L225.713 155.758L225.151 154.55L224.922 153.154L224.88 152.092L224.984 150.383L225.609 148.487L226.817 146.862L228.484 145.717L229.672 145.029L230.984 144.612L231.609 144.508L232.297 144.467L233.067 144.258L235.734 144.321L237.088 144.612L239.026 145.258L241.297 146.862L242.067 147.904L243.047 149.696L243.109 150.362L243.255 151.008L242.963 151.592L242.317 152.092L241.692 152.008H240.984L240.067 151.946L238.422 152.092L237.672 151.633L237.151 150.946L236.567 150.467L235.942 150.05L235.317 149.862L234.213 149.737L233.088 149.758L232.463 149.904L231.922 150.217L231.401 150.592L230.984 151.05L230.817 151.987L230.942 153.029L231.463 153.508L232.755 154.133L234.588 154.508H235.588L236.317 154.654L237.005 154.675L237.692 154.779L240.401 155.612L241.026 156.008L241.588 156.279L242.213 156.842L243.109 157.862L243.484 158.425L244.005 160.446L244.067 161.55L243.859 163.279L243.672 163.862L243.463 164.487L243.067 165.258L242.734 165.737L241.713 166.779L239.359 168.196L238.713 168.508L238.088 168.571L237.401 168.862L236.692 168.967L236.005 169.133L235.317 169.196L232.567 169.133Z" fill="#020202"/>
<mask id="mask0_1_79" style="mask-type:luminance" maskUnits="userSpaceOnUse" x="32" y="0" width="182" height="125">
<path d="M32.0885 0.34375H213.74V124.333H32.0885V0.34375Z" fill="white"/>
</mask>
<g mask="url(#mask0_1_79)">
<path d="M149.781 108.901L141.896 115.135C121.948 130.901 92.6198 124.266 81.4323 101.37L32.0885 0.494802H52.401C67.9375 0.494802 82.1146 9.32293 88.9219 23.3594L121.458 90.4375C123.828 95.3281 127.292 99.5833 131.641 102.813C136.01 106.057 142 108.833 149.552 108.62C147.802 106.401 146.255 104.036 144.958 101.375L95.6146 0.494802H115.927C131.464 0.494802 145.641 9.32293 152.443 23.3594L184.984 90.4375C187.349 95.3281 190.818 99.5833 195.167 102.813C199.651 106.146 205.854 108.99 213.703 108.594L205.417 115.135C187.896 128.995 163.125 125.484 149.781 108.901ZM191.458 43.3125L213.724 0.348969L158.099 0.364594L179.568 43.2344C182.016 48.125 188.943 48.1719 191.458 43.3125Z" fill="black"/>
</g>
</svg>
