<svg width="293" height="84" viewBox="0 0 293 84" fill="none" xmlns="http://www.w3.org/2000/svg">
<mask id="mask0_1_152" style="mask-type:luminance" maskUnits="userSpaceOnUse" x="0" y="0" width="85" height="84">
<path d="M0.333328 0.651047H84.3333V83.651H0.333328V0.651047Z" fill="white"/>
</mask>
<g mask="url(#mask0_1_152)">
<path d="M0.5625 0.473969H83.4323V83.5521H0.5625V0.473969Z" fill="#2A4FF6"/>
</g>
<path d="M62.3229 13.7865H54.1875L50.125 20.8386L46.0573 27.9011H62.3229L66.3802 20.8386L70.4479 13.7865H62.3229Z" fill="white"/>
<path d="M41.9948 34.9636L37.9271 27.9011L33.8646 20.8438L29.7969 13.7865H13.5417L17.6094 20.8438L21.6667 27.9011L25.7344 34.9636L29.7969 42.0208L33.8646 49.0833L29.7969 56.1406L21.6719 70.2552H37.9271L41.9948 63.1979L46.0521 56.1406L50.1198 49.0833L46.0573 42.0208L41.9948 34.9636Z" fill="white"/>
<path d="M111.979 54.9688V45.9375L103.172 28.4427H110.089L115.286 39.3854H115.547L120.703 28.4427H127.479L118.672 45.9375V54.9688H111.979ZM153.286 28.4427V42.9792C153.286 46.5261 153.068 49.1094 152.641 50.7448C152.224 52.375 151.281 53.5365 149.818 54.2292C148.359 54.9219 145.974 55.2708 142.667 55.2708C139.359 55.2708 136.974 54.9219 135.516 54.2292C134.052 53.5365 133.104 52.375 132.682 50.7448C132.26 49.1094 132.052 46.5261 132.052 42.9792V28.4427H138.745V44.4011C138.745 46.2292 138.802 47.4844 138.927 48.1771C139.057 48.8698 139.38 49.3333 139.896 49.5729C140.411 49.8021 141.333 49.9167 142.667 49.9167C143.995 49.9167 144.917 49.8021 145.438 49.5729C145.953 49.3333 146.271 48.8698 146.396 48.1771C146.526 47.4844 146.589 46.2292 146.589 44.4011V28.4427H153.286ZM175.432 54.9688L171.969 45.6771H167.323V54.9688H160.63V28.4427H173.323C175.755 28.4427 177.589 28.7813 178.833 29.4636C180.073 30.1458 180.896 31.0833 181.286 32.2813C181.688 33.474 181.891 35.0729 181.891 37.0729C181.891 38.9219 181.656 40.5313 181.182 41.9011C180.714 43.2604 179.771 44.25 178.359 44.8594L182.427 54.9688H175.432ZM170.776 40.3594C172.167 40.3594 173.146 40.2813 173.714 40.125C174.292 39.9688 174.667 39.6771 174.844 39.2552C175.026 38.8333 175.12 38.1198 175.12 37.1094C175.12 36.0833 175.042 35.3594 174.885 34.9375C174.734 34.5208 174.375 34.2292 173.797 34.0729C173.219 33.9115 172.234 33.8333 170.854 33.8333H167.323V40.3594H170.776ZM188.667 54.9688V28.4427H207.432V33.875H195.359V38.849H205.583V44.2813H195.359V49.5313H207.432V54.9688H188.667ZM230.083 54.9688L222.589 44.1771H220.938V54.9688H214.245V28.4427H220.938V38.7708H222.589L230.161 28.4427H237.516L227.932 41.0052L237.615 54.9688H230.083ZM259.245 54.9688L257.656 49.9531H248.245L246.734 54.9688H240.042L248.505 28.4427H257.589L266.042 54.9688H259.245ZM253.01 34.375H252.813L249.781 44.5156H256.078L253.01 34.375ZM286.729 54.9688L277.583 39.8229H277.385V54.9688H271.005V28.4427H277.885L286.391 42.2031H286.589V28.4427H293V54.9688H286.729Z" fill="black"/>
</svg>
