<svg xmlns="http://www.w3.org/2000/svg" xmlns:xlink="http://www.w3.org/1999/xlink" width="500" zoomAndPan="magnify" viewBox="0 0 375 374.999991" height="500" preserveAspectRatio="xMidYMid meet" version="1.2"><defs><clipPath id="10d20e30fe"><path d="M 64 156.488281 L 127 156.488281 L 127 218.738281 L 64 218.738281 Z M 64 156.488281 "/></clipPath></defs><g id="e5f873abbd"><g clip-rule="nonzero" clip-path="url(#10d20e30fe)"><path style=" stroke:none;fill-rule:nonzero;fill:#2a4ff6;fill-opacity:1;" d="M 64.171875 156.355469 L 126.324219 156.355469 L 126.324219 218.664062 L 64.171875 218.664062 Z M 64.171875 156.355469 "/></g><path style=" stroke:none;fill-rule:nonzero;fill:#ffffff;fill-opacity:1;" d="M 110.492188 166.339844 L 104.390625 166.339844 L 101.34375 171.628906 L 98.292969 176.925781 L 110.492188 176.925781 L 113.535156 171.628906 L 116.585938 166.339844 Z M 110.492188 166.339844 "/><path style=" stroke:none;fill-rule:nonzero;fill:#ffffff;fill-opacity:1;" d="M 95.246094 182.222656 L 92.195312 176.925781 L 89.148438 171.632812 L 86.097656 166.339844 L 73.90625 166.339844 L 76.957031 171.632812 L 80 176.925781 L 83.050781 182.222656 L 86.097656 187.515625 L 89.148438 192.8125 L 86.097656 198.105469 L 80.003906 208.691406 L 92.195312 208.691406 L 95.246094 203.398438 L 98.289062 198.105469 L 101.339844 192.8125 L 98.292969 187.515625 Z M 95.246094 182.222656 "/><path style=" stroke:none;fill-rule:nonzero;fill:#000000;fill-opacity:1;" d="M 147.734375 197.226562 L 147.734375 190.453125 L 141.128906 177.332031 L 146.316406 177.332031 L 150.214844 185.539062 L 150.410156 185.539062 L 154.277344 177.332031 L 159.359375 177.332031 L 152.753906 190.453125 L 152.753906 197.226562 Z M 178.714844 177.332031 L 178.714844 188.234375 C 178.714844 190.894531 178.550781 192.832031 178.230469 194.058594 C 177.917969 195.28125 177.210938 196.152344 176.113281 196.671875 C 175.019531 197.191406 173.230469 197.453125 170.75 197.453125 C 168.269531 197.453125 166.480469 197.191406 165.386719 196.671875 C 164.289062 196.152344 163.578125 195.28125 163.261719 194.058594 C 162.945312 192.832031 162.789062 190.894531 162.789062 188.234375 L 162.789062 177.332031 L 167.808594 177.332031 L 167.808594 189.300781 C 167.808594 190.671875 167.851562 191.613281 167.945312 192.132812 C 168.042969 192.652344 168.285156 193 168.671875 193.179688 C 169.058594 193.351562 169.75 193.4375 170.75 193.4375 C 171.746094 193.4375 172.4375 193.351562 172.828125 193.179688 C 173.214844 193 173.453125 192.652344 173.546875 192.132812 C 173.644531 191.613281 173.691406 190.671875 173.691406 189.300781 L 173.691406 177.332031 Z M 195.324219 197.226562 L 192.726562 190.257812 L 189.242188 190.257812 L 189.242188 197.226562 L 184.222656 197.226562 L 184.222656 177.332031 L 193.742188 177.332031 C 195.566406 177.332031 196.941406 177.585938 197.875 178.097656 C 198.804688 178.609375 199.421875 179.3125 199.714844 180.210938 C 200.015625 181.105469 200.167969 182.304688 200.167969 183.804688 C 200.167969 185.191406 199.992188 186.398438 199.636719 187.425781 C 199.285156 188.445312 198.578125 189.1875 197.519531 189.644531 L 200.570312 197.226562 Z M 191.832031 186.269531 C 192.875 186.269531 193.609375 186.210938 194.035156 186.09375 C 194.46875 185.976562 194.75 185.757812 194.882812 185.441406 C 195.019531 185.125 195.089844 184.589844 195.089844 183.832031 C 195.089844 183.0625 195.03125 182.519531 194.914062 182.203125 C 194.800781 181.890625 194.53125 181.671875 194.097656 181.554688 C 193.664062 181.433594 192.925781 181.375 191.890625 181.375 L 189.242188 181.375 L 189.242188 186.269531 Z M 205.25 197.226562 L 205.25 177.332031 L 219.324219 177.332031 L 219.324219 181.40625 L 210.269531 181.40625 L 210.269531 185.136719 L 217.9375 185.136719 L 217.9375 189.210938 L 210.269531 189.210938 L 210.269531 193.148438 L 219.324219 193.148438 L 219.324219 197.226562 Z M 236.3125 197.226562 L 230.691406 189.132812 L 229.453125 189.132812 L 229.453125 197.226562 L 224.433594 197.226562 L 224.433594 177.332031 L 229.453125 177.332031 L 229.453125 185.078125 L 230.691406 185.078125 L 236.371094 177.332031 L 241.886719 177.332031 L 234.699219 186.753906 L 241.960938 197.226562 Z M 258.183594 197.226562 L 256.992188 193.464844 L 249.933594 193.464844 L 248.800781 197.226562 L 243.78125 197.226562 L 250.128906 177.332031 L 256.941406 177.332031 L 263.28125 197.226562 Z M 253.507812 181.78125 L 253.359375 181.78125 L 251.085938 189.386719 L 255.808594 189.386719 Z M 278.796875 197.226562 L 271.9375 185.867188 L 271.789062 185.867188 L 271.789062 197.226562 L 267.003906 197.226562 L 267.003906 177.332031 L 272.164062 177.332031 L 278.542969 187.652344 L 278.691406 187.652344 L 278.691406 177.332031 L 283.5 177.332031 L 283.5 197.226562 Z M 278.796875 197.226562 "/></g></svg>